<?xml version="1.0" encoding="UTF-8"?>
<svg id="b" data-name="Layer 2" xmlns="http://www.w3.org/2000/svg" viewBox="0 0 127.92 150">
  <defs>
    <style>
      .d {
        fill: #fff;
      }
    </style>
  </defs>
  <g id="c" data-name="Layer 5">
    <path class="d" d="M122.4,99.46c-2.19-2.1-5.07-4.2-8.79-6.4-3.87-2.33-7.85-4.25-11.24-5.83-1.03-.48-2.07-.96-3.11-1.43l-.9-.41c-.53-.23-1.03-.45-1.54-.67-4.94-2.17-10.27-4.33-17.26-7.01-3.17-1.22-6.31-2.41-9.39-3.56.64-.46,1.29-.93,1.93-1.39l.08-.06c13.41-9.67,27.28-19.66,26.64-31.79v-.04s0-.04,0-.04c-.22-2.27-.92-4.51-2.08-6.68.17-.1.35-.2.52-.3,1.56-.89,3.12-1.76,4.66-2.62l.05-.03c3.43-1.92,6.67-3.73,9.63-5.55,1.83-1.08,4.57-2.75,6.86-4.61,2.68-2.11,4.26-4.02,4.92-6,.06-.15.11-.29.15-.44l.03-.09.02-.09c.12-.54.17-1.08.15-1.61,0-.2-.02-.39-.04-.59-.4-3.22-3.21-5.62-8.59-7.33h-.03s-.03-.02-.03-.02c-.31-.09-.63-.18-.94-.26-2.7-.82-6.06-1.54-10-2.15-9.27-1.51-18.74-1.88-27.9-2.23l-2.74-.11c-1.37-.04-5.05-.13-9.97-.13v1h0v-1h0c-8.8,0-21.29.29-30.79,1.69-9.77,1.33-14.43,3.64-15.07,7.48-.03.17-.04.33-.04.5,0,.78.18,1.56.53,2.31.26.59.64,1.19,1.12,1.76l.06.07.06.06c.11.11.22.21.33.32,1,1.04,2.37,2.08,4.2,3.17.48.29.98.58,1.52.87-.37.15-.73.31-1.08.46l-.12.05c-6.88,3.04-13.99,6.18-19.68,11.64C.98,33.88-.48,37.62.14,41.51c1.44,9.18,14.66,15.92,21.76,19.54l.23.12c11.44,5.59,23.46,10.12,35.08,14.5l.53.2c-.67.48-1.34.97-2,1.45-2.1,1.52-4.26,3.08-6.38,4.67-3.74,2.78-8.53,6.49-12.33,10.42-4.8,4.88-7.37,9.52-7.85,14.17-.23,2.11,0,4.24.66,6.31v.04s.03.04.03.04c.05.14.1.28.16.41.3.84.68,1.68,1.13,2.51-1.5.86-3.01,1.7-4.51,2.55-2.78,1.56-5.63,3.16-8.38,4.8-.82.48-1.63.96-2.41,1.43-2.42,1.44-5.53,3.38-7.88,5.58-2.51,2.29-3.75,4.49-3.78,6.71-.02.48.02.96.12,1.43l.02.09.03.09c.09.3.21.6.35.89,1.19,2.72,4.37,4.71,9.99,6.24,12.04,3.51,32.64,4.25,47.8,4.25h.25c.18.02.36.03.54.04.25.01.51.02.78.02.48,0,.97-.02,1.44-.07,12.12-.08,21.27-.6,23.94-.95,10.82-1.14,19.85-2.54,20.78-7.94.66-3.83-3.13-6.8-7.65-9.22,2.13-.9,4.1-1.79,5.98-2.69,4.54-2.14,7.96-4.07,10.75-6.05,5.18-3.58,8.06-7.5,8.52-11.64.54-4.09-1.29-8.13-5.44-11.97ZM42.88,100.93v.05s.02.05.02.05c.49,1.91,1.37,3.79,2.61,5.62-.39.3-.78.59-1.18.89-1.64,1.19-3.49,2.44-5.63,3.8-.75.48-1.53.97-2.34,1.47-.26-.48-.48-.96-.68-1.45-.34-.95-.53-1.92-.57-2.87,0-.24,0-.48,0-.71.16-3.29,2.11-6.86,5.97-10.92.39-.4.81-.82,1.23-1.22.18-.17.36-.34.55-.52-.38,1.95-.37,3.89.03,5.82ZM85.27,50.45c-.2-1.54-.66-3.04-1.37-4.51-.4-.86-.9-1.73-1.49-2.59,1.54-1.16,3.24-2.35,5.21-3.64,1.24-.82,2.55-1.65,3.97-2.52.7,1.35,1.11,2.71,1.24,4.11.22,4.63-3.3,9.37-7.76,13.64.11-.54.2-1.07.26-1.62v-.05s0-.05,0-.05c.04-.6.04-1.2,0-1.79-.01-.33-.04-.66-.07-.99ZM67.11,68.74c.12-1.73.33-3.66.72-5.66,1.09-5.05,3.83-9.76,8.35-14.35.5-.51,1.04-1.02,1.6-1.53.22.35.42.69.59,1.03.56,1.11.89,2.26.98,3.38.16,3.61-2.03,7.62-6.68,12.26-1.67,1.61-3.52,3.16-5.3,4.66l-.25.21ZM93.19,29.25c-3.62-3.96-8.33-7.07-12.2-9.62l-.98-.65c-2.18-1.39-4.39-2.7-6.52-3.98-2.41-1.44-4.87-2.9-7.21-4.42-.57-.36-1.11-.72-1.6-1.06,1.34-.67,2.83-1.45,4.13-2.87l.06-.07.06-.07c.11-.14.2-.29.29-.44,2.14.03,4.27.08,6.34.14l.41.02c3.83.15,7.77.3,11.67.54,4.14.27,7.98.62,11.4,1.03,5.3.67,9.98,1.6,14.3,2.83.15.05.29.09.44.14,2.52.9,3.47,1.7,3.81,2.09.07.08.11.14.13.18,0,.02-.01.05-.02.07-.2.44-.66,1.15-1.7,2.14-1.97,1.83-4.98,3.69-6.78,4.81-.24.15-.47.29-.71.44-1.04.61-2.08,1.21-3.03,1.74-1.12.64-2.18,1.24-3.03,1.76l-2.21,1.25c-1.97,1.11-3.96,2.23-5.96,3.38-.36.21-.72.41-1.09.62ZM76.75,24.02l.93.62c3.44,2.27,7.26,4.8,10.22,7.73-3.7,2.27-6.78,4.35-9.48,6.43-2.8-2.6-6.48-5.14-11.17-7.74-6.15-3.5-13.15-6.59-19.18-9.15-1.17-.51-2.35-1.01-3.52-1.51-1.27-.55-2.56-1.1-3.85-1.65,1.87-.68,3.73-1.35,5.55-2l.1-.04c2.95-1.06,6-2.15,8.99-3.27.97-.36,1.99-.75,3.04-1.16,1.21,1.05,2.75,2.17,4.65,3.38,2.43,1.57,4.92,3.06,7.34,4.5,2.12,1.26,4.3,2.56,6.37,3.88ZM53.25,7.81c-2.98,1.11-6.03,2.2-8.98,3.26l.31.95s-.02,0-.03.01l-.34-.94c-3.7,1.33-7.51,2.7-11.3,4.14l-.64-.3-.05-.03c-.65-.3-1.3-.61-1.95-.93-1.47-.73-2.74-1.42-3.77-2.05-.98-.62-1.82-1.26-2.53-1.92.24-.15.6-.34,1.13-.55,3.46-1.33,10.59-2.33,21.17-2.96.91-.05,1.67-.1,2.21-.14,1.03-.08,3.12-.17,6.19-.24,0,.36.05.73.14,1.1-.53.2-1.05.4-1.55.59ZM26.69,24.19c1.86-.79,3.83-1.59,5.99-2.43.17.08.34.15.5.23h0c2.48,1.21,5.63,2.53,9.27,4.06l.27.11c.97.41,1.97.83,2.99,1.26,2.96,1.28,5.2,2.27,7.25,3.21.67.33,1.44.69,2.26,1.08,3.12,1.49,7,3.34,10.7,5.48,3.15,1.87,5.78,3.72,7.83,5.52-.81.75-1.58,1.5-2.3,2.25-5.44,5.62-8.62,11.51-9.72,17.99-.51,2.7-.68,5.45-.74,7.72l-1.67-.63c-11.5-4.34-23.38-8.82-34.52-14.26l-.18-.09c-5.71-2.91-17.59-8.96-18.56-15.13-.19-1.22-.13-3.16,2.63-5.91,4.88-4.69,11.5-7.61,17.9-10.44l.09-.04ZM60.02,87.29c-1.01,4.04-2.94,7.76-5.89,11.34-1.22,1.41-2.54,2.78-4.01,4.14-.65-1.05-1.11-2.1-1.39-3.14-1.26-6.31,5.39-12.99,12.07-18.41-.11,2.05-.32,4.07-.78,6.08ZM34.71,120.77c.08.08.16.17.23.25,2.15,2.33,4.88,4.61,8.59,7.13,1.96,1.37,4.13,2.77,6.99,4.51l.07.04c1.69,1.07,3.39,2.07,5.04,3.03l.96.56c1.92,1.16,4.2,2.55,6.4,4.03l.22.16c-.28.14-.54.28-.8.42-1.47.79-2.96,1.76-3.74,3.05-16.27-.23-30.4-1.37-39.03-3.15-.22-.11-.46-.2-.71-.25-8.08-1.75-8.73-3.51-8.74-3.52,0,0,.04-1.48,5.4-5.1,2.1-1.42,4.31-2.68,5.92-3.61.95-.54,1.84-1.06,2.48-1.46,1.36-.78,2.72-1.54,4.09-2.31,2.11-1.19,4.28-2.41,6.45-3.67.06-.04.12-.07.19-.11ZM66.56,135.51l-.03-.02-.11-.07c-2.27-1.61-4.69-3.05-6.79-4.28-.82-.49-1.65-.99-2.47-1.48-1.18-.71-2.34-1.39-3.49-2.1-.53-.34-1.1-.7-1.68-1.07-1.68-1.06-3.41-2.16-5.09-3.3-1.59-1.11-3.01-2.18-4.32-3.27-.94-.77-1.8-1.53-2.56-2.28,2.97-1.83,5.5-3.51,7.82-5.23.56-.4,1.1-.81,1.64-1.21,5.68,5.29,13.71,9.19,19.7,12.09l1.93.94c3.96,1.85,8,3.58,11.91,5.25,1.39.6,2.79,1.2,4.2,1.8-.12.05-.25.09-.38.14-1.05.38-2.12.75-3.17,1.13l-.07.02c-3.6,1.28-7.32,2.6-11,4.01h-.03s-.03.03-.03.03l-.14.06c-.92.34-1.86.7-2.8,1.07l-.04.02h0c-.82-.68-1.63-1.28-2.28-1.74-.17-.12-.35-.25-.53-.39l-.02-.02-.09-.07-.03-.02ZM73.59,142.62l.1-.04c.38-.14.68-.26.88-.34,3.11-1.17,6.3-2.31,9.39-3.42l.06-.02.11-.04c1.57-.56,3.15-1.13,4.74-1.71,1.7-.61,3.9-1.4,6.18-2.26.72.34,1.43.68,2.14,1.02,4.49,2.14,6.18,3.55,6.8,4.22-1.1.64-4.54,1.85-15.22,2.98h-.03s-.04,0-.04,0c-3.15.42-8.81.74-15.48.89,0-.37-.04-.74-.12-1.11.16-.06.32-.12.48-.18ZM103.03,125.05c-2.37,1.04-4.93,2.1-7.8,3.22-3.3-1.5-6.61-2.92-9.83-4.3-3.9-1.67-7.89-3.38-11.71-5.16l-1.9-.92c-5.43-2.63-12.67-6.15-17.67-10.55,2.01-1.84,3.74-3.68,5.25-5.6l.08-.1c2.88-3.61,4.83-7.32,5.98-11.36.9-2.99,1.39-6.21,1.43-9.54.02-.47.04-.93.05-1.39.48.18.96.36,1.45.54l.17.06c2.95,1.11,5.92,2.23,8.9,3.37,6.65,2.56,12.04,4.75,16.95,6.88.8.35,1.61.71,2.41,1.07,1.02.46,2.05.94,3.08,1.42,1.77.83,3.51,1.68,5.16,2.51,2.25,1.16,4.17,2.22,5.86,3.24,2.51,1.54,4.7,3.1,6.66,4.76.13.11.26.22.38.33,2.5,2.3,3.83,4.48,3.94,6.45.01.26,0,.53-.02.79-.36,2.33-2.5,4.91-6.2,7.53l-.32.21c-3.04,1.95-6.39,3.79-10.2,5.59-.77.35-1.49.67-2.11.95Z"/>
  </g>
</svg>