<?xml version="1.0" encoding="UTF-8"?>
<svg id="a" data-name="Layer 1" xmlns="http://www.w3.org/2000/svg" viewBox="0 0 15905.67 5302.77">
  <defs>
    <style>
      .b {
        fill: #60c;
      }

      .c {
        fill: #030;
      }

      .d {
        fill: #c3f;
      }

      .e {
        fill: #9f0;
      }

      .e, .f, .g, .h, .i, .j, .k, .l, .m, .n, .o, .p, .q, .r {
        stroke: #fff;
        stroke-miterlimit: 4;
        stroke-width: 20px;
      }

      .s {
        fill: #00c;
      }

      .t {
        fill: #003;
      }

      .u {
        fill: #3fc;
      }

      .v {
        fill: #900;
      }

      .w {
        fill: #f6f;
      }

      .x, .n {
        fill: #f9f;
      }

      .y {
        fill: #390;
      }

      .z {
        fill: #309;
      }

      .f, .aa {
        fill: #060;
      }

      .ab {
        fill: #0c6;
      }

      .ac {
        fill: #039;
      }

      .ad {
        fill: lime;
      }

      .g {
        fill: #ff9;
      }

      .ae {
        fill: #3cf;
      }

      .af {
        fill: #c00;
      }

      .h, .ag {
        fill: #006;
      }

      .ah {
        fill: #0c0;
      }

      .ai {
        fill: #6c0;
      }

      .aj {
        fill: #903;
      }

      .ak {
        fill: #093;
      }

      .al {
        fill: #06c;
      }

      .i {
        fill: #09f;
      }

      .am {
        fill: #f3c;
      }

      .an {
        fill: #090;
      }

      .ao, .j {
        fill: #600;
      }

      .ap {
        fill: #0f9;
      }

      .aq {
        fill: #fff;
      }

      .k {
        fill: none;
      }

      .ar {
        fill: #ffc;
      }

      .as {
        fill: #930;
      }

      .l {
        fill: blue;
      }

      .at {
        fill: #009;
      }

      .au {
        fill: #c60;
      }

      .av {
        fill: #cf3;
      }

      .aw {
        fill: #300;
      }

      .ax {
        fill: #fc3;
      }

      .m {
        fill: #9ff;
      }

      .ay {
        fill: #cff;
      }

      .az {
        fill: #fcf;
      }

      .o {
        fill: red;
      }

      .ba {
        fill: #ff6;
      }

      .p {
        fill: #90f;
      }

      .bb {
        fill: #6ff;
      }

      .q {
        fill: #f90;
      }

      .bc {
        fill: #c06;
      }

      .r {
        fill: #f09;
      }
    </style>
  </defs>
  <path class="aq" d="M14580.28,2640.78c-5.5,0-10,4.4-10,10s4.5,10,10,10v-20ZM15714.28,2657.78c4-3.9,4-10.2.1-14.1l-63.7-63.6c-3.9-3.9-10.2-3.9-14.1,0-3.9,3.9-3.9,10.2,0,14.1l56.5,56.6-56.5,56.5c-3.9,3.9-3.9,10.3,0,14.2s10.2,3.9,14.1,0l63.6-63.7ZM14580.28,2660.78h1127v-20h-1127v20Z"/>
  <path class="aq" d="M433.42,2643.68c-3.91,3.9-3.92,10.2-.02,14.1l63.55,63.7c3.89,3.9,10.23,4,14.14.1,3.91-3.9,3.92-10.3.02-14.2l-56.49-56.6,56.65-56.5c3.92-3.9,3.93-10.3.03-14.2-3.9-3.9-10.24-3.9-14.15,0l-63.73,63.6ZM1325.35,2661.98c5.52,0,10-4.4,10.01-9.9.01-5.6-4.46-10.1-9.98-10.1l-.03,20ZM440.47,2660.68l884.88,1.3.03-20-884.88-1.3-.03,20Z"/>
  <rect class="ap" x="2338.34" y="2338.3" width="624.78" height="624.78" transform="translate(-1097.94 2650.72) rotate(-45)"/>
  <rect class="k" x="2037.24" y="2037.24" width="1229.56" height="1229.56" transform="translate(-1098.5 2652.02) rotate(-45)"/>
  <rect class="aa" x="1012.97" y="1012.98" width="624.78" height="624.78" transform="translate(-548.99 1325.36) rotate(-45)"/>
  <rect class="ak" x="1454.76" y="1454.77" width="624.78" height="624.78" transform="translate(-731.99 1767.15) rotate(-45)"/>
  <rect class="ab" x="1897.85" y="1895.3" width="624.78" height="624.78" transform="translate(-913.71 2209.49) rotate(-45)"/>
  <rect class="m" x="3673.7" y="3673.74" width="604.78" height="604.78" transform="translate(-1646.98 3976.1) rotate(-45)"/>
  <rect class="ay" x="4105.49" y="4105.5" width="624.78" height="624.78" transform="translate(-1829.96 4417.88) rotate(-45)"/>
  <rect class="aq" x="4547.28" y="4547.3" width="624.78" height="624.78" transform="translate(-2012.96 4859.67) rotate(-45)"/>
  <rect class="u" x="2780.12" y="2780.1" width="624.78" height="624.78" transform="translate(-1280.95 3092.5) rotate(-45)"/>
  <rect class="bb" x="3221.91" y="3221.9" width="624.78" height="624.78" transform="translate(-1463.95 3534.3) rotate(-45)"/>
  <rect x="129.4" y="129.4" width="624.78" height="624.78" transform="translate(-183 441.79) rotate(-45)"/>
  <rect class="c" x="571.18" y="571.19" width="624.78" height="624.78" transform="translate(-366 883.57) rotate(-45)"/>
  <rect class="k" x="8222.3" y="2037.23" width="1229.56" height="1229.56" transform="translate(713.07 7025.51) rotate(-45)"/>
  <rect class="bc" x="8966.48" y="1897.83" width="624.78" height="624.78" transform="translate(1154.86 7208.51) rotate(-45)"/>
  <rect class="r" x="8534.65" y="2349.59" width="604.78" height="604.78" transform="translate(713.08 7025.48) rotate(-45)"/>
  <rect class="ao" x="9849.97" y="1014.25" width="624.78" height="624.78" transform="translate(2038.41 7574.44) rotate(-45)"/>
  <rect class="aj" x="9408.27" y="1456.04" width="624.78" height="624.78" transform="translate(1596.65 7391.51) rotate(-45)"/>
  <rect class="n" x="7209.29" y="3674.99" width="604.78" height="604.78" transform="translate(-612.31 6476.51) rotate(-45)"/>
  <rect class="az" x="6757.51" y="4106.79" width="624.78" height="624.78" transform="translate(-1054.11 6293.52) rotate(-45)"/>
  <rect class="aq" x="6315.71" y="4548.59" width="624.78" height="624.78" transform="translate(-1495.9 6110.53) rotate(-45)"/>
  <rect class="am" x="8082.86" y="2781.39" width="624.78" height="624.78" transform="translate(271.28 6842.49) rotate(-45)"/>
  <rect class="w" x="7641.07" y="3223.19" width="624.78" height="624.78" transform="translate(-170.52 6659.5) rotate(-45)"/>
  <rect x="10733.57" y="130.68" width="624.78" height="624.78" transform="translate(2921.99 7940.45) rotate(-45)"/>
  <rect class="aw" x="10291.77" y="572.47" width="624.78" height="624.78" transform="translate(2480.2 7757.45) rotate(-45)"/>
  <rect class="k" x="3804.39" y="2037.23" width="1229.56" height="1229.56" transform="translate(-580.91 3901.58) rotate(-45)"/>
  <rect class="k" x="12640.2" y="2037.23" width="1229.56" height="1229.56" transform="translate(2007.04 10149.44) rotate(-45)"/>
  <rect class="k" x="10873" y="2037.23" width="1229.56" height="1229.56" transform="translate(1489.44 8899.84) rotate(-45)"/>
  <rect class="j" x="9859.99" y="1024.25" width="604.78" height="604.78" transform="translate(2038.41 7574.45) rotate(-45)"/>
  <rect class="aw" x="9408.27" y="572.47" width="624.78" height="624.78" transform="translate(2221.43 7132.72) rotate(-45)"/>
  <rect x="8966.48" y="130.68" width="624.78" height="624.78" transform="translate(2404.42 6690.92) rotate(-45)"/>
  <rect class="bb" x="3223.19" y="3223.19" width="624.78" height="624.78" transform="translate(-1464.48 3535.58) rotate(-45)"/>
  <rect class="w" x="7641.07" y="3223.18" width="624.78" height="624.78" transform="translate(-170.51 6659.49) rotate(-45)"/>
  <rect class="ag" x="5432.14" y="1014.26" width="624.78" height="624.78" transform="translate(744.45 4450.56) rotate(-45)"/>
  <rect class="q" x="11185.43" y="2349.59" width="604.78" height="604.78" transform="translate(1489.47 8899.87) rotate(-45)"/>
  <rect class="ax" x="11617.18" y="2781.39" width="624.78" height="624.78" transform="translate(1306.46 9341.63) rotate(-45)"/>
  <rect class="ba" x="12058.97" y="3223.19" width="624.78" height="624.78" transform="translate(1123.46 9783.42) rotate(-45)"/>
  <rect class="g" x="12510.73" y="3674.99" width="604.78" height="604.78" transform="translate(940.44 10225.2) rotate(-45)"/>
  <rect class="ar" x="12942.58" y="4106.79" width="624.78" height="624.78" transform="translate(757.46 10667.03) rotate(-45)"/>
  <rect class="au" x="10733.57" y="1897.83" width="624.78" height="624.78" transform="translate(1672.43 8458.04) rotate(-45)"/>
  <rect class="as" x="10291.77" y="1456.04" width="624.78" height="624.78" transform="translate(1855.42 8016.24) rotate(-45)"/>
  <rect class="x" x="8082.87" y="3664.98" width="624.78" height="624.78" transform="translate(-353.51 7101.29) rotate(-45)"/>
  <rect class="i" x="4116.78" y="2349.61" width="604.78" height="604.78" transform="translate(-580.91 3901.58) rotate(-45)"/>
  <rect class="al" x="4548.57" y="1897.83" width="624.78" height="624.78" transform="translate(-139.12 4084.57) rotate(-45)"/>
  <rect class="ac" x="4990.35" y="1456.04" width="624.78" height="624.78" transform="translate(302.67 4267.56) rotate(-45)"/>
  <rect class="ag" x="5432.14" y="1014.26" width="624.78" height="624.78" transform="translate(744.45 4450.56) rotate(-45)"/>
  <rect class="t" x="5873.93" y="572.47" width="624.78" height="624.78" transform="translate(1186.24 4633.56) rotate(-45)"/>
  <rect x="6315.72" y="130.68" width="624.78" height="624.78" transform="translate(1628.03 4816.55) rotate(-45)"/>
  <rect class="ae" x="3664.99" y="2781.38" width="624.78" height="624.78" transform="translate(-1022.68 3718.57) rotate(-45)"/>
  <rect class="m" x="2791.41" y="3675.03" width="604.78" height="604.78" transform="translate(-1906.31 3352.61) rotate(-45)"/>
  <rect class="ay" x="2339.62" y="4106.78" width="624.78" height="624.78" transform="translate(-2348.07 3169.6) rotate(-45)"/>
  <rect class="aq" x="1897.83" y="4548.58" width="624.78" height="624.78" transform="translate(-2789.87 2986.6) rotate(-45)"/>
  <rect class="g" x="11627.19" y="3675.03" width="604.78" height="604.78" transform="translate(681.63 9600.45) rotate(-45)"/>
  <rect x="15151.49" y="130.68" width="624.78" height="624.78" transform="translate(4215.97 11064.39) rotate(-45)"/>
  <rect class="e" x="12952.49" y="2349.62" width="604.78" height="604.78" transform="translate(2007.01 10149.37) rotate(-45)"/>
  <rect class="av" x="12500.79" y="2781.38" width="624.78" height="624.78" transform="translate(1565.27 9966.43) rotate(-45)"/>
  <rect class="ar" x="11175.39" y="4106.78" width="624.78" height="624.78" transform="translate(239.87 9417.43) rotate(-45)"/>
  <rect class="aq" x="10733.59" y="4548.58" width="624.78" height="624.78" transform="translate(-201.93 9234.43) rotate(-45)"/>
  <rect class="aq" x="13384.29" y="4548.58" width="624.78" height="624.78" transform="translate(574.44 11108.76) rotate(-45)"/>
  <rect class="ai" x="13384.29" y="1897.83" width="624.78" height="624.78" transform="translate(2448.8 10332.37) rotate(-45)"/>
  <rect class="y" x="13826.09" y="1456.04" width="624.78" height="624.78" transform="translate(2890.6 10515.37) rotate(-45)"/>
  <rect class="aa" x="14267.89" y="1014.26" width="624.78" height="624.78" transform="translate(3332.38 10698.38) rotate(-45)"/>
  <rect class="c" x="14709.69" y="572.47" width="624.78" height="624.78" transform="translate(3774.18 10881.38) rotate(-45)"/>
  <rect class="p" x="6767.49" y="2349.59" width="604.78" height="604.78" transform="translate(195.49 5775.91) rotate(-45)"/>
  <rect class="k" x="6455.11" y="2037.2" width="1229.56" height="1229.56" transform="translate(195.49 5775.91) rotate(-45)"/>
  <rect class="d" x="7199.29" y="2781.39" width="624.78" height="624.78" transform="translate(12.49 6217.7) rotate(-45)"/>
  <rect class="n" x="8092.85" y="3674.99" width="604.78" height="604.78" transform="translate(-353.52 7101.28) rotate(-45)"/>
  <rect class="az" x="8524.65" y="4106.79" width="624.78" height="624.78" transform="translate(-536.52 7543.08) rotate(-45)"/>
  <rect class="aq" x="8966.47" y="4548.59" width="624.78" height="624.78" transform="translate(-719.51 7984.9) rotate(-45)"/>
  <rect class="b" x="6315.71" y="1897.84" width="624.78" height="624.78" transform="translate(378.46 5334.13) rotate(-45)"/>
  <rect class="z" x="5873.91" y="1456.05" width="624.78" height="624.78" transform="translate(561.45 4892.34) rotate(-45)"/>
  <rect class="h" x="5442.13" y="1024.27" width="604.78" height="604.78" transform="translate(744.44 4450.56) rotate(-45)"/>
  <rect class="t" x="4990.34" y="572.48" width="624.78" height="624.78" transform="translate(927.44 4008.77) rotate(-45)"/>
  <rect x="4548.55" y="130.69" width="624.78" height="624.78" transform="translate(1110.43 3566.98) rotate(-45)"/>
  <path class="aq" d="M2392.12,5042.88c-20.82,20.8-20.82,54.6,0,75.4,20.83,20.8,54.6,20.8,75.43,0s20.83-54.6,0-75.4c-20.83-20.9-54.6-20.9-75.43,0ZM4601.06,5042.88c-20.83,20.8-20.83,54.6,0,75.4s54.6,20.8,75.43,0c20.82-20.8,20.82-54.6,0-75.4-20.83-20.8-54.6-20.8-75.43,0ZM2429.84,5090.58h2208.93v-20h-2208.93v20Z"/>
  <path class="aq" d="M2835.2,4602.38c-20.83,20.8-20.83,54.6,0,75.4s54.59,20.8,75.42,0,20.83-54.6,0-75.4c-20.83-20.9-54.59-20.9-75.42,0ZM4159.27,4601.08c-20.83,20.8-20.83,54.6,0,75.4s54.6,20.8,75.43,0,20.83-54.6,0-75.4c-20.83-20.8-54.6-20.8-75.43,0ZM2872.92,4650.08l1324.07-1.3v-20s-1324.09,1.3-1324.09,1.3l.02,20Z"/>
  <path class="aq" d="M3275.7,4159.28c-20.83,20.8-20.83,54.6,0,75.4s54.6,20.8,75.43,0c20.82-20.8,20.82-54.6,0-75.4-20.83-20.8-54.6-20.8-75.43,0ZM3717.48,4159.28c-20.82,20.8-20.82,54.6,0,75.4,20.83,20.9,54.6,20.9,75.43,0,20.83-20.8,20.83-54.6,0-75.4s-54.6-20.8-75.43,0ZM3313.41,4206.98h441.79v-20h-441.79v20Z"/>
  <path class="aq" d="M5044.13,5044.18c-20.83,20.8-20.83,54.6,0,75.4,20.83,20.8,54.6,20.8,75.43,0,20.82-20.8,20.82-54.6,0-75.4-20.83-20.9-54.6-20.9-75.43,0ZM6369.5,5044.18c-20.83,20.8-20.83,54.5,0,75.4,20.83,20.8,54.6,20.8,75.42,0,20.83-20.9,20.83-54.6,0-75.4-20.82-20.9-54.59-20.9-75.42,0ZM5081.84,5091.88h1325.37v-20h-1325.37v20Z"/>
  <path class="aq" d="M5044.13,184.48c-20.83,20.82-20.83,54.59,0,75.42,20.83,20.83,54.6,20.83,75.43,0,20.82-20.83,20.82-54.6,0-75.42s-54.6-20.83-75.43,0ZM6369.5,184.47c-20.83,20.83-20.83,54.6,0,75.42,20.83,20.83,54.6,20.83,75.42,0,20.83-20.82,20.83-54.59,0-75.42-20.82-20.83-54.59-20.83-75.42,0ZM5081.84,232.19h1325.37v-20.01h-1325.37v20.01Z"/>
  <path class="aq" d="M9460.78,183.17c-20.9,20.83-20.9,54.6,0,75.43,20.8,20.83,54.6,20.83,75.4,0,20.8-20.83,20.8-54.6,0-75.43-20.8-20.82-54.6-20.82-75.4,0ZM10786.08,183.17c-20.8,20.83-20.8,54.59,0,75.42,20.9,20.83,54.6,20.83,75.5,0,20.8-20.83,20.8-54.59,0-75.42-20.9-20.83-54.6-20.83-75.5,0ZM9498.48,230.89h1325.3v-20.01h-1325.3v20.01Z"/>
  <path class="aq" d="M9461.98,5044.18c-20.8,20.8-20.8,54.5,0,75.4,20.9,20.8,54.6,20.8,75.5,0,20.8-20.9,20.8-54.6,0-75.4s-54.6-20.9-75.5,0ZM10787.38,5044.08c-20.8,20.9-20.8,54.6,0,75.5,20.8,20.8,54.6,20.8,75.4,0,20.9-20.9,20.9-54.6,0-75.5-20.8-20.8-54.6-20.8-75.4,0ZM9499.78,5091.88h1325.3v-20h-1325.3v20Z"/>
  <path class="aq" d="M6811.28,5044.18c-20.83,20.8-20.83,54.6,0,75.4,20.83,20.8,54.6,20.8,75.43,0,20.82-20.8,20.82-54.6,0-75.4-20.83-20.9-54.6-20.9-75.43,0ZM9020.18,5044.18c-20.8,20.8-20.8,54.6,0,75.4,20.9,20.8,54.6,20.8,75.5,0,20.8-20.8,20.8-54.6,0-75.4-20.9-20.9-54.6-20.9-75.5,0ZM6848.99,5091.88h2208.99v-20h-2208.99v20Z"/>
  <path class="aq" d="M6811.3,184.46c-20.83,20.83-20.83,54.6,0,75.43s54.59,20.82,75.42,0c20.83-20.83,20.83-54.6,0-75.43-20.83-20.83-54.6-20.83-75.42,0ZM9020.28,184.47c-20.9,20.82-20.9,54.59,0,75.42,20.8,20.83,54.5,20.83,75.4,0,20.8-20.83,20.8-54.6,0-75.42-20.9-20.83-54.6-20.83-75.4,0ZM6849.01,232.17h2208.97s0-19.99,0-19.99h-2208.97s0,19.99,0,19.99Z"/>
  <path class="aq" d="M11229.18,5044.18c-20.8,20.8-20.8,54.5,0,75.4,20.8,20.8,54.6,20.8,75.4,0,20.8-20.9,20.8-54.6,0-75.4-20.8-20.9-54.6-20.9-75.4,0ZM13438.08,5044.18c-20.8,20.8-20.8,54.6,0,75.4,20.9,20.8,54.6,20.8,75.5,0,20.8-20.8,20.8-54.6,0-75.4s-54.6-20.9-75.5,0ZM11266.88,5091.88h2208.9v-20h-2208.9v20Z"/>
  <rect class="v" x="9406.98" y="1012.98" width="624.78" height="624.78" transform="translate(1909.56 7260.82) rotate(-45)"/>
  <rect class="af" x="8966.48" y="1014.25" width="624.78" height="624.78" transform="translate(1779.64 6949.71) rotate(-45)"/>
  <rect class="o" x="8534.65" y="1024.26" width="604.78" height="604.78" transform="translate(1650.23 6637.3) rotate(-45)"/>
  <rect class="at" x="4990.35" y="1014.26" width="624.78" height="624.78" transform="translate(615.06 4138.17) rotate(-45)"/>
  <rect class="s" x="4548.56" y="1014.25" width="624.78" height="624.78" transform="translate(485.66 3825.78) rotate(-45)"/>
  <rect class="l" x="4116.77" y="1024.26" width="604.78" height="604.78" transform="translate(356.26 3513.39) rotate(-45)"/>
  <rect x="1896.55" y="129.4" width="624.78" height="624.78" transform="translate(334.59 1691.35) rotate(-45)"/>
  <rect class="c" x="1454.76" y="571.18" width="624.78" height="624.78" transform="translate(-107.19 1508.35) rotate(-45)"/>
  <rect class="f" x="1022.98" y="1022.97" width="604.78" height="604.78" transform="translate(-548.98 1325.37) rotate(-45)"/>
  <path class="aq" d="M1066.77,624.96c-20.83,20.83-20.83,54.6,0,75.43,20.82,20.82,54.59,20.82,75.42,0,20.83-20.83,20.83-54.6,0-75.43-20.83-20.83-54.6-20.83-75.42,0ZM1508.55,624.97c-20.83,20.82-20.83,54.59,0,75.42s54.6,20.83,75.42,0c20.83-20.83,20.83-54.6,0-75.42-20.82-20.83-54.59-20.83-75.42,0ZM1104.48,672.67h441.78s0-19.99,0-19.99h-441.78s0,19.99,0,19.99Z"/>
  <rect class="f" x="14277.89" y="1024.25" width="604.78" height="604.78" transform="translate(3332.39 10698.38) rotate(-45)"/>
  <rect x="13384.29" y="130.68" width="624.78" height="624.78" transform="translate(3698.36 9814.79) rotate(-45)"/>
  <rect class="c" x="13826.09" y="572.47" width="624.78" height="624.78" transform="translate(3515.37 10256.58) rotate(-45)"/>
  <rect class="an" x="13826.07" y="1014.26" width="624.78" height="624.78" transform="translate(3202.98 10385.97) rotate(-45)"/>
  <rect class="ah" x="13385.57" y="1015.54" width="624.78" height="624.78" transform="translate(3073.05 10074.87) rotate(-45)"/>
  <rect class="ad" x="12943.77" y="1015.54" width="624.78" height="624.78" transform="translate(2943.65 9762.47) rotate(-45)"/>
  <path class="aq" d="M7254.37,4603.58c-20.83,20.9-20.83,54.6,0,75.5,20.83,20.8,54.6,20.8,75.42,0,20.83-20.9,20.83-54.6,0-75.5-20.82-20.8-54.59-20.8-75.42,0ZM8578.44,4602.38c-20.82,20.8-20.82,54.6,0,75.4,20.83,20.8,54.6,20.8,75.43,0,20.81-20.8,20.81-54.6,0-75.4-20.83-20.9-54.6-20.9-75.43,0ZM7292.09,4651.38l1324.08-1.3-.02-20-1324.08,1.3.02,20Z"/>
  <path class="aq" d="M7694.87,4160.58c-20.82,20.8-20.82,54.6,0,75.4,20.83,20.8,54.6,20.8,75.43,0s20.83-54.6,0-75.4c-20.83-20.9-54.6-20.9-75.43,0ZM8136.66,4160.58c-20.83,20.8-20.83,54.6,0,75.4,20.82,20.8,54.59,20.8,75.42,0s20.83-54.6,0-75.4c-20.83-20.9-54.6-20.9-75.42,0ZM7732.59,4208.28h441.78v-20h-441.78v20Z"/>
  <path class="aq" d="M11672.28,4603.58c-20.9,20.9-20.9,54.6,0,75.5,20.8,20.8,54.6,20.8,75.4,0,20.8-20.9,20.8-54.6,0-75.5-20.8-20.8-54.6-20.8-75.4,0ZM12996.28,4602.38c-20.8,20.8-20.8,54.6,0,75.4,20.9,20.8,54.6,20.8,75.5,0,20.8-20.8,20.8-54.6,0-75.4s-54.6-20.9-75.5,0ZM11709.98,4651.38l1324.1-1.3-.1-20-1324,1.3v20Z"/>
  <path class="aq" d="M12112.78,4160.58c-20.9,20.8-20.9,54.6,0,75.4,20.8,20.8,54.6,20.8,75.4,0,20.8-20.8,20.8-54.6,0-75.4-20.8-20.9-54.6-20.9-75.4,0ZM12554.58,4160.58c-20.9,20.8-20.9,54.6,0,75.4,20.8,20.8,54.5,20.8,75.4,0,20.8-20.8,20.8-54.6,0-75.4-20.9-20.9-54.6-20.9-75.4,0ZM12150.48,4208.28h441.8v-20h-441.8v20Z"/>
  <path class="aq" d="M5485.91,626.26c-20.82,20.83-20.82,54.6,0,75.43,20.83,20.82,54.6,20.82,75.43,0,20.83-20.83,20.83-54.6,0-75.43s-54.6-20.83-75.43,0ZM5927.7,626.27c-20.83,20.83-20.83,54.59,0,75.42,20.82,20.83,54.59,20.83,75.42,0s20.83-54.59,0-75.42-54.6-20.83-75.42,0ZM5523.63,673.97h441.78s0-19.99,0-19.99h-441.78s0,19.99,0,19.99Z"/>
  <path class="aq" d="M9902.58,624.96c-20.9,20.83-20.9,54.6,0,75.43,20.8,20.82,54.5,20.82,75.4,0,20.8-20.83,20.8-54.6,0-75.43-20.9-20.83-54.6-20.83-75.4,0ZM10344.28,624.97c-20.8,20.82-20.8,54.59,0,75.42,20.9,20.83,54.6,20.83,75.5,0,20.8-20.83,20.8-54.6,0-75.42-20.9-20.83-54.6-20.83-75.5,0ZM9940.28,672.67h441.7s0-19.99,0-19.99h-441.7s0,19.99,0,19.99Z"/>
  <path class="aq" d="M14321.68,626.25c-20.8,20.82-20.8,54.59,0,75.42,20.8,20.83,54.6,20.83,75.4,0,20.9-20.83,20.9-54.6,0-75.42-20.8-20.83-54.6-20.83-75.4,0ZM14763.48,626.25c-20.8,20.83-20.8,54.6,0,75.43,20.8,20.82,54.6,20.82,75.4,0,20.8-20.83,20.8-54.6,0-75.43s-54.6-20.83-75.4,0ZM14359.38,673.96h441.8v-20h-441.8v20Z"/>
  <path class="aq" d="M11229.18,184.46c-20.8,20.83-20.8,54.6,0,75.42,20.8,20.83,54.6,20.83,75.4,0,20.8-20.82,20.8-54.59,0-75.42s-54.6-20.83-75.4,0ZM13438.08,184.46c-20.8,20.83-20.8,54.6,0,75.42,20.9,20.83,54.6,20.83,75.5,0,20.8-20.82,20.8-54.59,0-75.42-20.9-20.83-54.6-20.83-75.5,0ZM11266.88,232.17h2208.9v-20h-2208.9v20Z"/>
  <path class="aq" d="M13879.88,184.46c-20.8,20.83-20.8,54.6,0,75.43,20.8,20.82,54.6,20.82,75.4,0,20.9-20.83,20.9-54.6,0-75.43-20.8-20.83-54.6-20.83-75.4,0ZM15205.28,184.46c-20.8,20.83-20.8,54.6,0,75.43,20.8,20.82,54.6,20.82,75.4,0,20.8-20.83,20.8-54.6,0-75.43-20.8-20.83-54.6-20.83-75.4,0ZM13917.58,232.17h1325.4v-20h-1325.4v20Z"/>
  <path class="aq" d="M624.98,183.18c-20.83,20.82-20.83,54.59,0,75.42,20.83,20.83,54.59,20.83,75.42,0,20.83-20.83,20.83-54.6,0-75.42-20.83-20.83-54.59-20.83-75.42,0ZM1950.34,183.18c-20.83,20.83-20.83,54.6,0,75.42,20.82,20.83,54.59,20.83,75.42,0,20.83-20.82,20.83-54.59,0-75.42-20.83-20.83-54.6-20.83-75.42,0ZM662.69,230.89h1325.36v-20H662.69v20Z"/>
  <path class="aq" d="M2393.42,184.45c-20.83,20.83-20.83,54.6,0,75.43,20.82,20.83,54.59,20.83,75.42,0s20.83-54.6,0-75.43c-20.83-20.82-54.6-20.82-75.42,0ZM4602.35,184.46c-20.83,20.83-20.83,54.6,0,75.43,20.83,20.82,54.6,20.82,75.43,0,20.82-20.83,20.82-54.6,0-75.43-20.83-20.83-54.6-20.83-75.43,0ZM2431.13,232.17h2208.93v-20h-2208.93v20Z"/>
</svg>