<?xml version="1.0" encoding="UTF-8"?>
<svg id="b" data-name="Layer 2" xmlns="http://www.w3.org/2000/svg" viewBox="0 0 15905.67 5302.78">
  <defs>
    <style>
      .d {
        fill: #ff9;
      }

      .d, .e, .f, .g, .h, .i, .j, .k, .l, .m, .n, .o, .p, .q, .r, .s, .t, .u, .v, .w, .x, .y, .z, .aa, .ab, .ac, .ad, .ae, .af, .ag, .ah, .ai, .aj, .ak, .al, .am, .an, .ao, .ap, .aq, .ar, .as, .at, .au, .av, .aw, .ax, .ay, .az, .ba, .bb, .bc, .bd {
        stroke: #000;
        stroke-miterlimit: 4;
      }

      .d, .k, .o, .s, .w, .x, .ae, .ag, .aj, .ar, .as, .at, .av, .ba {
        stroke-width: 20px;
      }

      .e {
        fill: #ffc;
      }

      .e, .f, .g, .h, .i, .j, .l, .m, .n, .p, .q, .r, .t, .u, .v, .y, .z, .aa, .ab, .ac, .ad, .af, .ah, .ai, .ak, .al, .am, .an, .ao, .ap, .aq, .au, .aw, .ax, .ay, .az, .bb, .bc, .bd {
        stroke-width: 1px;
      }

      .f {
        fill: #cff;
      }

      .g, .s {
        fill: #f9f;
      }

      .h {
        fill: #00c;
      }

      .i {
        fill: #fff;
      }

      .j {
        fill: #06c;
      }

      .k {
        fill: blue;
      }

      .l {
        fill: #090;
      }

      .m {
        fill: #930;
      }

      .n {
        fill: #309;
      }

      .be {
        fill: lime;
      }

      .o {
        fill: none;
      }

      .p {
        fill: #039;
      }

      .q {
        fill: #300;
      }

      .r {
        fill: #c3f;
      }

      .t {
        fill: #3fc;
      }

      .u {
        fill: #6c0;
      }

      .v {
        fill: #003;
      }

      .w {
        fill: #90f;
      }

      .x {
        fill: #9ff;
      }

      .y, .ar {
        fill: #060;
      }

      .z, .ag {
        fill: #006;
      }

      .aa, .ba {
        fill: #600;
      }

      .ab {
        fill: #f6f;
      }

      .ac {
        fill: #093;
      }

      .ad {
        fill: #ff6;
      }

      .ae {
        fill: #f09;
      }

      .bf {
        fill: #0f9;
      }

      .af {
        fill: #3cf;
      }

      .ah {
        fill: #60c;
      }

      .ai {
        fill: #fcf;
      }

      .aj {
        fill: red;
      }

      .ak {
        fill: #c06;
      }

      .al {
        fill: #0c6;
      }

      .am {
        fill: #cf3;
      }

      .an {
        fill: #390;
      }

      .ao {
        fill: #c60;
      }

      .ap {
        fill: #f3c;
      }

      .aq {
        fill: #903;
      }

      .as {
        fill: #9f0;
      }

      .at {
        fill: #09f;
      }

      .au {
        fill: #c00;
      }

      .av {
        fill: #f90;
      }

      .aw {
        fill: #009;
      }

      .ax {
        fill: #030;
      }

      .ay {
        fill: #fc3;
      }

      .az {
        fill: #900;
      }

      .bb {
        fill: #0c0;
      }

      .bc {
        fill: #6ff;
      }
    </style>
  </defs>
  <g id="c" data-name="Layer 1">
    <g>
      <path d="M14580.28,2640.79c-5.5,0-10,4.4-10,10s4.5,10,10,10v-20ZM15714.28,2657.79c4-3.9,4-10.2.1-14.1l-63.7-63.6c-3.9-3.9-10.2-3.9-14.1,0-3.9,3.9-3.9,10.2,0,14.1l56.5,56.6-56.5,56.5c-3.9,3.9-3.9,10.3,0,14.2s10.2,3.9,14.1,0l63.6-63.7ZM14580.28,2660.79h1127v-20h-1127v20Z"/>
      <path d="M433.42,2643.69c-3.91,3.9-3.92,10.2-.02,14.1l63.55,63.7c3.89,3.9,10.23,4,14.14.1,3.91-3.9,3.92-10.3.02-14.2l-56.49-56.6,56.65-56.5c3.92-3.9,3.93-10.3.03-14.2-3.9-3.9-10.24-3.9-14.15,0l-63.73,63.6ZM1325.35,2661.99c5.52,0,10-4.4,10.01-9.9.01-5.6-4.46-10.1-9.98-10.1l-.03,20ZM440.47,2660.69l884.88,1.3.03-20-884.88-1.3-.03,20Z"/>
      <rect class="bf" x="2338.34" y="2338.31" width="624.78" height="624.78" transform="translate(-1097.95 2650.72) rotate(-45)"/>
      <rect class="o" x="2037.24" y="2037.25" width="1229.56" height="1229.56" transform="translate(-1098.51 2652.02) rotate(-45)"/>
      <rect class="y" x="1013.47" y="1013.48" width="623.78" height="623.78" transform="translate(-548.99 1325.36) rotate(-45)"/>
      <rect class="ac" x="1455.26" y="1455.27" width="623.78" height="623.78" transform="translate(-731.99 1767.15) rotate(-45)"/>
      <rect class="al" x="1898.35" y="1895.81" width="623.78" height="623.78" transform="translate(-913.72 2209.5) rotate(-45)"/>
      <rect class="x" x="3673.7" y="3673.75" width="604.78" height="604.78" transform="translate(-1646.99 3976.1) rotate(-45)"/>
      <rect class="f" x="4105.99" y="4106.01" width="623.78" height="623.78" transform="translate(-1829.96 4417.89) rotate(-45)"/>
      <rect class="i" x="4547.78" y="4547.81" width="623.78" height="623.78" transform="translate(-2012.97 4859.68) rotate(-45)"/>
      <rect class="t" x="2780.62" y="2780.61" width="623.78" height="623.78" transform="translate(-1280.96 3092.51) rotate(-45)"/>
      <rect class="bc" x="3222.41" y="3222.42" width="623.78" height="623.78" transform="translate(-1463.96 3534.3) rotate(-45)"/>
      <rect class="bd" x="129.9" y="129.9" width="623.78" height="623.78" transform="translate(-183 441.79) rotate(-45)"/>
      <rect class="ax" x="571.68" y="571.69" width="623.78" height="623.78" transform="translate(-366 883.57) rotate(-45)"/>
      <rect class="o" x="8222.3" y="2037.24" width="1229.56" height="1229.56" transform="translate(713.06 7025.52) rotate(-45)"/>
      <rect class="ak" x="8966.97" y="1898.34" width="623.78" height="623.78" transform="translate(1154.85 7208.51) rotate(-45)"/>
      <rect class="ae" x="8534.65" y="2349.6" width="604.78" height="604.78" transform="translate(713.07 7025.48) rotate(-45)"/>
      <rect class="aa" x="9850.57" y="1014.76" width="623.78" height="623.78" transform="translate(2038.43 7574.51) rotate(-45)"/>
      <rect class="aq" x="9408.77" y="1456.55" width="623.78" height="623.78" transform="translate(1596.64 7391.51) rotate(-45)"/>
      <rect class="s" x="7209.29" y="3675" width="604.78" height="604.78" transform="translate(-612.32 6476.51) rotate(-45)"/>
      <rect class="ai" x="6758" y="4107.3" width="623.78" height="623.78" transform="translate(-1054.12 6293.52) rotate(-45)"/>
      <rect class="i" x="6316.22" y="4549.1" width="623.78" height="623.78" transform="translate(-1495.91 6110.53) rotate(-45)"/>
      <rect class="ap" x="8083.37" y="2781.9" width="623.78" height="623.78" transform="translate(271.28 6842.49) rotate(-45)"/>
      <rect class="ab" x="7641.58" y="3223.69" width="623.78" height="623.78" transform="translate(-170.52 6659.5) rotate(-45)"/>
      <rect class="bd" x="10734.07" y="131.19" width="623.78" height="623.78" transform="translate(2921.98 7940.45) rotate(-45)"/>
      <rect class="q" x="10292.27" y="572.97" width="623.78" height="623.78" transform="translate(2480.2 7757.44) rotate(-45)"/>
      <rect class="o" x="3804.39" y="2037.24" width="1229.56" height="1229.56" transform="translate(-580.91 3901.58) rotate(-45)"/>
      <rect class="o" x="12640.2" y="2037.24" width="1229.56" height="1229.56" transform="translate(2007.03 10149.44) rotate(-45)"/>
      <rect class="o" x="10873" y="2037.24" width="1229.56" height="1229.56" transform="translate(1489.43 8899.84) rotate(-45)"/>
      <rect class="ba" x="9859.99" y="1024.26" width="604.78" height="604.78" transform="translate(2038.41 7574.45) rotate(-45)"/>
      <rect class="q" x="9408.77" y="572.98" width="623.78" height="623.78" transform="translate(2221.42 7132.72) rotate(-45)"/>
      <rect class="bd" x="8966.97" y="131.19" width="623.78" height="623.78" transform="translate(2404.41 6690.92) rotate(-45)"/>
      <rect class="bc" x="3223.7" y="3223.69" width="623.78" height="623.78" transform="translate(-1464.49 3535.59) rotate(-45)"/>
      <rect class="ab" x="7641.57" y="3223.68" width="623.78" height="623.78" transform="translate(-170.51 6659.49) rotate(-45)"/>
      <rect class="z" x="5432.64" y="1014.77" width="623.78" height="623.78" transform="translate(744.45 4450.56) rotate(-45)"/>
      <rect class="av" x="11185.43" y="2349.6" width="604.78" height="604.78" transform="translate(1489.47 8899.87) rotate(-45)"/>
      <rect class="ay" x="11617.67" y="2781.9" width="623.78" height="623.78" transform="translate(1306.45 9341.62) rotate(-45)"/>
      <rect class="ad" x="12059.47" y="3223.7" width="623.78" height="623.78" transform="translate(1123.45 9783.42) rotate(-45)"/>
      <rect class="d" x="12510.73" y="3675" width="604.78" height="604.78" transform="translate(940.44 10225.2) rotate(-45)"/>
      <rect class="e" x="12943.07" y="4107.3" width="623.78" height="623.78" transform="translate(757.45 10667.02) rotate(-45)"/>
      <rect class="ao" x="10734.07" y="1898.34" width="623.78" height="623.78" transform="translate(1672.42 8458.03) rotate(-45)"/>
      <rect class="m" x="10292.27" y="1456.55" width="623.78" height="623.78" transform="translate(1855.41 8016.24) rotate(-45)"/>
      <rect class="g" x="8083.37" y="3665.48" width="623.78" height="623.78" transform="translate(-353.51 7101.29) rotate(-45)"/>
      <rect class="at" x="4116.78" y="2349.62" width="604.78" height="604.78" transform="translate(-580.91 3901.58) rotate(-45)"/>
      <rect class="j" x="4549.07" y="1898.34" width="623.78" height="623.78" transform="translate(-139.13 4084.58) rotate(-45)"/>
      <rect class="p" x="4990.85" y="1456.55" width="623.78" height="623.78" transform="translate(302.66 4267.57) rotate(-45)"/>
      <rect class="z" x="5432.64" y="1014.77" width="623.78" height="623.78" transform="translate(744.44 4450.56) rotate(-45)"/>
      <rect class="v" x="5874.43" y="572.98" width="623.78" height="623.78" transform="translate(1186.23 4633.56) rotate(-45)"/>
      <rect class="bd" x="6316.22" y="131.19" width="623.78" height="623.78" transform="translate(1628.02 4816.55) rotate(-45)"/>
      <rect class="af" x="3665.49" y="2781.88" width="623.78" height="623.78" transform="translate(-1022.68 3718.58) rotate(-45)"/>
      <rect class="x" x="2791.41" y="3675.04" width="604.78" height="604.78" transform="translate(-1906.32 3352.61) rotate(-45)"/>
      <rect class="f" x="2340.12" y="4107.28" width="623.78" height="623.78" transform="translate(-2348.07 3169.6) rotate(-45)"/>
      <rect class="i" x="1898.33" y="4549.08" width="623.78" height="623.78" transform="translate(-2789.87 2986.61) rotate(-45)"/>
      <rect class="d" x="11627.19" y="3675.04" width="604.78" height="604.78" transform="translate(681.62 9600.45) rotate(-45)"/>
      <rect class="bd" x="15151.99" y="131.19" width="623.78" height="623.78" transform="translate(4215.96 11064.39) rotate(-45)"/>
      <rect class="as" x="12952.49" y="2349.62" width="604.78" height="604.78" transform="translate(2007.01 10149.37) rotate(-45)"/>
      <rect class="am" x="12501.29" y="2781.88" width="623.78" height="623.78" transform="translate(1565.27 9966.43) rotate(-45)"/>
      <rect class="e" x="11175.89" y="4107.28" width="623.78" height="623.78" transform="translate(239.87 9417.43) rotate(-45)"/>
      <rect class="i" x="10734.09" y="4549.08" width="623.78" height="623.78" transform="translate(-201.93 9234.43) rotate(-45)"/>
      <rect class="i" x="13384.79" y="4549.08" width="623.78" height="623.78" transform="translate(574.44 11108.76) rotate(-45)"/>
      <rect class="u" x="13384.79" y="1898.34" width="623.78" height="623.78" transform="translate(2448.8 10332.37) rotate(-45)"/>
      <rect class="an" x="13826.59" y="1456.55" width="623.78" height="623.78" transform="translate(2890.59 10515.38) rotate(-45)"/>
      <rect class="y" x="14268.39" y="1014.76" width="623.78" height="623.78" transform="translate(3332.38 10698.38) rotate(-45)"/>
      <rect class="ax" x="14710.19" y="572.98" width="623.78" height="623.78" transform="translate(3774.17 10881.39) rotate(-45)"/>
      <rect class="w" x="6767.49" y="2349.6" width="604.78" height="604.78" transform="translate(195.48 5775.91) rotate(-45)"/>
      <rect class="o" x="6455.11" y="2037.21" width="1229.56" height="1229.56" transform="translate(195.48 5775.92) rotate(-45)"/>
      <rect class="r" x="7199.78" y="2781.9" width="623.78" height="623.78" transform="translate(12.48 6217.7) rotate(-45)"/>
      <rect class="s" x="8092.85" y="3675" width="604.78" height="604.78" transform="translate(-353.53 7101.28) rotate(-45)"/>
      <rect class="ai" x="8525.15" y="4107.3" width="623.78" height="623.78" transform="translate(-536.53 7543.08) rotate(-45)"/>
      <rect class="i" x="8966.97" y="4549.1" width="623.78" height="623.78" transform="translate(-719.52 7984.89) rotate(-45)"/>
      <rect class="ah" x="6316.21" y="1898.35" width="623.78" height="623.78" transform="translate(378.45 5334.14) rotate(-45)"/>
      <rect class="n" x="5874.42" y="1456.56" width="623.78" height="623.78" transform="translate(561.45 4892.35) rotate(-45)"/>
      <rect class="ag" x="5442.13" y="1024.27" width="604.78" height="604.78" transform="translate(744.44 4450.56) rotate(-45)"/>
      <rect class="v" x="4990.84" y="572.98" width="623.78" height="623.78" transform="translate(927.43 4008.77) rotate(-45)"/>
      <rect class="bd" x="4549.05" y="131.2" width="623.78" height="623.78" transform="translate(1110.43 3566.98) rotate(-45)"/>
      <path d="M2392.12,5042.89c-20.82,20.8-20.82,54.6,0,75.4,20.83,20.8,54.6,20.8,75.43,0s20.83-54.6,0-75.4c-20.83-20.9-54.6-20.9-75.43,0ZM4601.06,5042.89c-20.83,20.8-20.83,54.6,0,75.4s54.6,20.8,75.43,0c20.82-20.8,20.82-54.6,0-75.4-20.83-20.8-54.6-20.8-75.43,0ZM2429.84,5090.59h2208.93v-20h-2208.93v20Z"/>
      <path d="M2835.2,4602.39c-20.83,20.8-20.83,54.6,0,75.4s54.59,20.8,75.42,0,20.83-54.6,0-75.4c-20.83-20.9-54.59-20.9-75.42,0ZM4159.27,4601.09c-20.83,20.8-20.83,54.6,0,75.4s54.6,20.8,75.43,0,20.83-54.6,0-75.4c-20.83-20.8-54.6-20.8-75.43,0ZM2872.92,4650.09l1324.07-1.3v-20s-1324.09,1.3-1324.09,1.3l.02,20Z"/>
      <path d="M3275.7,4159.29c-20.83,20.8-20.83,54.6,0,75.4s54.6,20.8,75.43,0c20.82-20.8,20.82-54.6,0-75.4-20.83-20.8-54.6-20.8-75.43,0ZM3717.48,4159.29c-20.82,20.8-20.82,54.6,0,75.4,20.83,20.9,54.6,20.9,75.43,0,20.83-20.8,20.83-54.6,0-75.4s-54.6-20.8-75.43,0ZM3313.41,4206.99h441.79v-20h-441.79v20Z"/>
      <path d="M5044.13,5044.19c-20.83,20.8-20.83,54.6,0,75.4,20.83,20.8,54.6,20.8,75.43,0,20.82-20.8,20.82-54.6,0-75.4-20.83-20.9-54.6-20.9-75.43,0ZM6369.5,5044.19c-20.83,20.8-20.83,54.5,0,75.4,20.83,20.8,54.6,20.8,75.42,0,20.83-20.9,20.83-54.6,0-75.4-20.82-20.9-54.59-20.9-75.42,0ZM5081.84,5091.89h1325.37v-20h-1325.37v20Z"/>
      <path d="M5044.13,184.49c-20.83,20.82-20.83,54.59,0,75.42,20.83,20.83,54.6,20.83,75.43,0,20.82-20.83,20.82-54.6,0-75.42s-54.6-20.83-75.43,0ZM6369.5,184.48c-20.83,20.83-20.83,54.6,0,75.42,20.83,20.83,54.6,20.83,75.42,0,20.83-20.82,20.83-54.59,0-75.42-20.82-20.83-54.59-20.83-75.42,0ZM5081.84,232.2h1325.37v-20.01h-1325.37v20.01Z"/>
      <path d="M9460.78,183.18c-20.9,20.83-20.9,54.6,0,75.43,20.8,20.83,54.6,20.83,75.4,0,20.8-20.83,20.8-54.6,0-75.43-20.8-20.82-54.6-20.82-75.4,0ZM10786.08,183.18c-20.8,20.83-20.8,54.59,0,75.42,20.9,20.83,54.6,20.83,75.5,0,20.8-20.83,20.8-54.59,0-75.42-20.9-20.83-54.6-20.83-75.5,0ZM9498.48,230.9h1325.3v-20.01h-1325.3v20.01Z"/>
      <path d="M9461.98,5044.19c-20.8,20.8-20.8,54.5,0,75.4,20.9,20.8,54.6,20.8,75.5,0,20.8-20.9,20.8-54.6,0-75.4s-54.6-20.9-75.5,0ZM10787.38,5044.09c-20.8,20.9-20.8,54.6,0,75.5,20.8,20.8,54.6,20.8,75.4,0,20.9-20.9,20.9-54.6,0-75.5-20.8-20.8-54.6-20.8-75.4,0ZM9499.78,5091.89h1325.3v-20h-1325.3v20Z"/>
      <path d="M6811.28,5044.19c-20.83,20.8-20.83,54.6,0,75.4,20.83,20.8,54.6,20.8,75.43,0,20.82-20.8,20.82-54.6,0-75.4-20.83-20.9-54.6-20.9-75.43,0ZM9020.18,5044.19c-20.8,20.8-20.8,54.6,0,75.4,20.9,20.8,54.6,20.8,75.5,0,20.8-20.8,20.8-54.6,0-75.4-20.9-20.9-54.6-20.9-75.5,0ZM6848.99,5091.89h2208.99v-20h-2208.99v20Z"/>
      <path d="M6811.3,184.47c-20.83,20.83-20.83,54.6,0,75.43s54.59,20.82,75.42,0c20.83-20.83,20.83-54.6,0-75.43-20.83-20.83-54.6-20.83-75.42,0ZM9020.28,184.48c-20.9,20.82-20.9,54.59,0,75.42,20.8,20.83,54.5,20.83,75.4,0,20.8-20.83,20.8-54.6,0-75.42-20.9-20.83-54.6-20.83-75.4,0ZM6849.01,232.18h2208.97s0-19.99,0-19.99h-2208.97s0,19.99,0,19.99Z"/>
      <path d="M11229.18,5044.19c-20.8,20.8-20.8,54.5,0,75.4,20.8,20.8,54.6,20.8,75.4,0,20.8-20.9,20.8-54.6,0-75.4-20.8-20.9-54.6-20.9-75.4,0ZM13438.08,5044.19c-20.8,20.8-20.8,54.6,0,75.4,20.9,20.8,54.6,20.8,75.5,0,20.8-20.8,20.8-54.6,0-75.4s-54.6-20.9-75.5,0ZM11266.88,5091.89h2208.9v-20h-2208.9v20Z"/>
      <rect class="az" x="9407.47" y="1013.48" width="623.78" height="623.78" transform="translate(1909.55 7260.82) rotate(-45)"/>
      <rect class="au" x="8966.97" y="1014.76" width="623.78" height="623.78" transform="translate(1779.63 6949.71) rotate(-45)"/>
      <rect class="aj" x="8534.65" y="1024.27" width="604.78" height="604.78" transform="translate(1650.22 6637.3) rotate(-45)"/>
      <rect class="aw" x="4990.86" y="1014.77" width="623.78" height="623.78" transform="translate(615.05 4138.18) rotate(-45)"/>
      <rect class="h" x="4549.06" y="1014.76" width="623.78" height="623.78" transform="translate(485.66 3825.78) rotate(-45)"/>
      <rect class="k" x="4116.77" y="1024.27" width="604.78" height="604.78" transform="translate(356.26 3513.39) rotate(-45)"/>
      <rect class="bd" x="1897.05" y="129.9" width="623.78" height="623.78" transform="translate(334.59 1691.35) rotate(-45)"/>
      <rect class="ax" x="1455.26" y="571.69" width="623.78" height="623.78" transform="translate(-107.2 1508.36) rotate(-45)"/>
      <rect class="ar" x="1022.98" y="1022.98" width="604.78" height="604.78" transform="translate(-548.99 1325.37) rotate(-45)"/>
      <path d="M1066.77,624.97c-20.83,20.83-20.83,54.6,0,75.43,20.82,20.82,54.59,20.82,75.42,0,20.83-20.83,20.83-54.6,0-75.43-20.83-20.83-54.6-20.83-75.42,0ZM1508.55,624.98c-20.83,20.82-20.83,54.59,0,75.42s54.6,20.83,75.42,0c20.83-20.83,20.83-54.6,0-75.42-20.82-20.83-54.59-20.83-75.42,0ZM1104.48,672.68h441.78s0-19.99,0-19.99h-441.78s0,19.99,0,19.99Z"/>
      <rect class="ar" x="14277.89" y="1024.26" width="604.78" height="604.78" transform="translate(3332.38 10698.38) rotate(-45)"/>
      <rect class="bd" x="13384.79" y="131.18" width="623.78" height="623.78" transform="translate(3698.36 9814.79) rotate(-45)"/>
      <rect class="ax" x="13826.59" y="572.98" width="623.78" height="623.78" transform="translate(3515.37 10256.58) rotate(-45)"/>
      <rect class="l" x="13826.57" y="1014.77" width="623.78" height="623.78" transform="translate(3202.97 10385.97) rotate(-45)"/>
      <rect class="bb" x="13386.07" y="1016.05" width="623.78" height="623.78" transform="translate(3073.05 10074.86) rotate(-45)"/>
      <rect class="be" x="12943.77" y="1015.55" width="624.78" height="624.78" transform="translate(2943.65 9762.47) rotate(-45)"/>
      <path d="M7254.37,4603.59c-20.83,20.9-20.83,54.6,0,75.5,20.83,20.8,54.6,20.8,75.42,0,20.83-20.9,20.83-54.6,0-75.5-20.82-20.8-54.59-20.8-75.42,0ZM8578.44,4602.39c-20.82,20.8-20.82,54.6,0,75.4,20.83,20.8,54.6,20.8,75.43,0,20.81-20.8,20.81-54.6,0-75.4-20.83-20.9-54.6-20.9-75.43,0ZM7292.09,4651.39l1324.08-1.3-.02-20-1324.08,1.3.02,20Z"/>
      <path d="M7694.87,4160.59c-20.82,20.8-20.82,54.6,0,75.4,20.83,20.8,54.6,20.8,75.43,0s20.83-54.6,0-75.4c-20.83-20.9-54.6-20.9-75.43,0ZM8136.66,4160.59c-20.83,20.8-20.83,54.6,0,75.4,20.82,20.8,54.59,20.8,75.42,0s20.83-54.6,0-75.4c-20.83-20.9-54.6-20.9-75.42,0ZM7732.59,4208.29h441.78v-20h-441.78v20Z"/>
      <path d="M11672.28,4603.59c-20.9,20.9-20.9,54.6,0,75.5,20.8,20.8,54.6,20.8,75.4,0,20.8-20.9,20.8-54.6,0-75.5-20.8-20.8-54.6-20.8-75.4,0ZM12996.28,4602.39c-20.8,20.8-20.8,54.6,0,75.4,20.9,20.8,54.6,20.8,75.5,0,20.8-20.8,20.8-54.6,0-75.4s-54.6-20.9-75.5,0ZM11709.98,4651.39l1324.1-1.3-.1-20-1324,1.3v20Z"/>
      <path d="M12112.78,4160.59c-20.9,20.8-20.9,54.6,0,75.4,20.8,20.8,54.6,20.8,75.4,0,20.8-20.8,20.8-54.6,0-75.4-20.8-20.9-54.6-20.9-75.4,0ZM12554.58,4160.59c-20.9,20.8-20.9,54.6,0,75.4,20.8,20.8,54.5,20.8,75.4,0,20.8-20.8,20.8-54.6,0-75.4-20.9-20.9-54.6-20.9-75.4,0ZM12150.48,4208.29h441.8v-20h-441.8v20Z"/>
      <path d="M5485.91,626.27c-20.82,20.83-20.82,54.6,0,75.43,20.83,20.82,54.6,20.82,75.43,0,20.83-20.83,20.83-54.6,0-75.43s-54.6-20.83-75.43,0ZM5927.7,626.28c-20.83,20.83-20.83,54.59,0,75.42,20.82,20.83,54.59,20.83,75.42,0s20.83-54.59,0-75.42-54.6-20.83-75.42,0ZM5523.63,673.98h441.78s0-19.99,0-19.99h-441.78s0,19.99,0,19.99Z"/>
      <path d="M9902.58,624.97c-20.9,20.83-20.9,54.6,0,75.43,20.8,20.82,54.5,20.82,75.4,0,20.8-20.83,20.8-54.6,0-75.43-20.9-20.83-54.6-20.83-75.4,0ZM10344.28,624.98c-20.8,20.82-20.8,54.59,0,75.42,20.9,20.83,54.6,20.83,75.5,0,20.8-20.83,20.8-54.6,0-75.42-20.9-20.83-54.6-20.83-75.5,0ZM9940.28,672.68h441.7s0-19.99,0-19.99h-441.7s0,19.99,0,19.99Z"/>
      <path d="M14321.68,626.26c-20.8,20.82-20.8,54.59,0,75.42,20.8,20.83,54.6,20.83,75.4,0,20.9-20.83,20.9-54.6,0-75.42-20.8-20.83-54.6-20.83-75.4,0ZM14763.48,626.26c-20.8,20.83-20.8,54.6,0,75.43,20.8,20.82,54.6,20.82,75.4,0,20.8-20.83,20.8-54.6,0-75.43s-54.6-20.83-75.4,0ZM14359.38,673.97h441.8v-20h-441.8v20Z"/>
      <path d="M11229.18,184.47c-20.8,20.83-20.8,54.6,0,75.42,20.8,20.83,54.6,20.83,75.4,0,20.8-20.82,20.8-54.59,0-75.42s-54.6-20.83-75.4,0ZM13438.08,184.47c-20.8,20.83-20.8,54.6,0,75.42,20.9,20.83,54.6,20.83,75.5,0,20.8-20.82,20.8-54.59,0-75.42-20.9-20.83-54.6-20.83-75.5,0ZM11266.88,232.18h2208.9v-20h-2208.9v20Z"/>
      <path d="M13879.88,184.47c-20.8,20.83-20.8,54.6,0,75.43,20.8,20.82,54.6,20.82,75.4,0,20.9-20.83,20.9-54.6,0-75.43-20.8-20.83-54.6-20.83-75.4,0ZM15205.28,184.47c-20.8,20.83-20.8,54.6,0,75.43,20.8,20.82,54.6,20.82,75.4,0,20.8-20.83,20.8-54.6,0-75.43-20.8-20.83-54.6-20.83-75.4,0ZM13917.58,232.18h1325.4v-20h-1325.4v20Z"/>
      <path d="M624.98,183.19c-20.83,20.82-20.83,54.59,0,75.42,20.83,20.83,54.59,20.83,75.42,0,20.83-20.83,20.83-54.6,0-75.42-20.83-20.83-54.59-20.83-75.42,0ZM1950.34,183.19c-20.83,20.83-20.83,54.6,0,75.42,20.82,20.83,54.59,20.83,75.42,0,20.83-20.82,20.83-54.59,0-75.42-20.83-20.83-54.6-20.83-75.42,0ZM662.69,230.9h1325.36v-20H662.69v20Z"/>
      <path d="M2393.42,184.46c-20.83,20.83-20.83,54.6,0,75.43,20.82,20.83,54.59,20.83,75.42,0s20.83-54.6,0-75.43c-20.83-20.82-54.6-20.82-75.42,0ZM4602.35,184.47c-20.83,20.83-20.83,54.6,0,75.43,20.83,20.82,54.6,20.82,75.43,0,20.82-20.83,20.82-54.6,0-75.43-20.83-20.83-54.6-20.83-75.43,0ZM2431.13,232.18h2208.93v-20h-2208.93v20Z"/>
    </g>
  </g>
</svg>