<?xml version="1.0" encoding="UTF-8"?>
<svg id="Layer_1" xmlns="http://www.w3.org/2000/svg" version="1.1" viewBox="0 0 257.4 151">
  <!-- Generator: Adobe Illustrator 29.4.0, SVG Export Plug-In . SVG Version: 2.1.0 Build 152)  -->
  <defs>
    <style>
      .st0, .st1 {
        fill: #09f;
      }

      .st1 {
        font-family: Lexend-Medium, Lexend;
        font-size: 12px;
        font-weight: 500;
      }

      .st2 {
        stroke-linecap: round;
        stroke-miterlimit: 10;
      }

      .st2, .st3 {
        stroke: #000;
        stroke-width: 3px;
      }

      .st2, .st3, .st4 {
        fill: none;
      }

      .st4 {
        stroke: #09f;
        stroke-width: 4px;
      }
    </style>
  </defs>
  <path class="st2" d="M3,64.4c1.3-2.9,2.7-5.8,4-8.7,1.3-2.8,2.7-5.6,4-8.3s2.7-5.2,4-7.5c1.3-2.4,2.7-4.5,4-6.5,1.3-1.9,2.7-3.7,4-5.1,1.3-1.5,2.7-2.6,4-3.5s2.7-1.5,4-1.8,2.7-.3,4,0,2.7.9,4,1.8,2.7,2.1,4,3.5c1.3,1.5,2.7,3.2,4,5.1,1.3,1.9,2.7,4.1,4,6.5s2.7,4.9,4,7.5c1.3,2.7,2.7,5.4,4,8.3,1.3,2.8,2.7,5.8,4,8.7,1.3,2.9,2.7,5.8,4,8.7,1.3,2.8,2.7,5.6,4,8.3,1.3,2.7,2.7,5.2,4,7.5,1.3,2.4,2.7,4.5,4,6.5,1.3,1.9,2.7,3.7,4,5.1,1.3,1.5,2.7,2.6,4,3.5s2.7,1.5,4,1.8,2.7.3,4,0,2.7-.9,4-1.8,2.7-2.1,4-3.5c1.3-1.5,2.7-3.2,4-5.1s2.7-4.1,4-6.5,2.7-4.9,4-7.5c1.3-2.7,2.7-5.4,4-8.3,1.3-2.8,2.7-5.8,4-8.7,1.3-2.9,2.7-5.8,4-8.7,1.3-2.8,2.7-5.6,4-8.3s2.7-5.2,4-7.5c1.3-2.4,2.7-4.5,4-6.5,1.3-1.9,2.7-3.7,4-5.1,1.3-1.5,2.7-2.6,4-3.5s2.7-1.5,4-1.8,2.7-.3,4,0,2.7.9,4,1.8,2.7,2.1,4,3.5c1.3,1.5,2.7,3.2,4,5.1,1.3,1.9,2.7,4.1,4,6.5s2.7,4.9,4,7.5c1.3,2.7,2.7,5.4,4,8.3,1.3,2.8,2.7,5.8,4,8.7s2.7,5.8,4,8.7c1.3,2.8,2.7,5.6,4,8.3,1.3,2.7,2.7,5.2,4,7.5,1.3,2.4,2.7,4.5,4,6.5,1.3,1.9,2.7,3.7,4,5.1,1.3,1.5,2.7,2.6,4,3.5s2.7,1.5,4,1.8,2.7.3,4,0,2.7-.9,4-1.8,2.7-2.1,4-3.5c1.3-1.5,2.7-3.2,4-5.1s2.7-4.1,4-6.5,2.7-4.9,4-7.5c1.3-2.7,2.7-5.4,4-8.3,1.3-2.8,2.7-5.8,4-8.7"/>
  <line class="st3" x1="3" y1="64.4" x2="243" y2="64.4"/>
  <line class="st4" x1="33" y1="22.1" x2="33" y2="64.4"/>
  <line class="st4" x1="22.9" y1="22.7" x2="42.4" y2="22.7"/>
  <line class="st4" x1="22.9" y1="64.4" x2="42.4" y2="64.4"/>
  <line class="st4" x1="216.1" y1="106.1" x2="93.7" y2="106.1"/>
  <line class="st4" x1="214" y1="96.3" x2="214" y2="115.9"/>
  <line class="st4" x1="93.4" y1="96.3" x2="93.4" y2="115.9"/>
  <path class="st0" d="M1.6,104.7c-.8.8-.8,2,0,2.8l12.7,12.7c.8.8,2,.8,2.8,0,.8-.8.8-2,0-2.8l-11.3-11.3,11.3-11.3c.8-.8.8-2,0-2.8s-2-.8-2.8,0l-12.7,12.7h0ZM65.3,107.5c.8-.8.8-2,0-2.8l-12.7-12.7c-.8-.8-2-.8-2.8,0s-.8,2,0,2.8l11.3,11.3-11.3,11.3c-.8.8-.8,2,0,2.8s2,.8,2.8,0l12.7-12.7h0ZM3,108.1h60.9v-4H3v4Z"/>
  <text class="st1" transform="translate(118.1 126.7)"><tspan x="0" y="0">Frequency / </tspan><tspan x="0" y="14.4">Wavelength</tspan></text>
  <text class="st1" transform="translate(9.6 137)"><tspan x="0" y="0">Velocity</tspan></text>
  <text class="st1" transform="translate(5.2 13.9)"><tspan x="0" y="0">Amplitude</tspan></text>
</svg>