<svg width="18557" height="18557" viewBox="0 0 18557 18557" fill="none" xmlns="http://www.w3.org/2000/svg">
<path d="M15905.7 10151.3C15900.2 10151.3 15895.7 10155.7 15895.7 10161.3C15895.7 10166.8 15900.2 10171.3 15905.7 10171.3L15905.7 10151.3ZM17039.7 10168.3C17043.7 10164.4 17043.7 10158.1 17039.8 10154.2L16976.1 10090.6C16972.2 10086.7 16965.9 10086.7 16962 10090.6C16958.1 10094.5 16958.1 10100.8 16962 10104.7L17018.5 10161.3L16962 10217.8C16958.1 10221.7 16958.1 10228.1 16962 10232C16965.9 10235.9 16972.2 10235.9 16976.1 10232L17039.7 10168.3ZM15905.7 10171.3L17032.7 10171.3L17032.7 10151.3L15905.7 10151.3L15905.7 10171.3Z" fill="black"/>
<path d="M1758.84 10154.2C1754.93 10158.1 1754.92 10164.4 1758.82 10168.3L1822.37 10232C1826.26 10235.9 1832.6 10236 1836.51 10232.1C1840.42 10228.2 1840.43 10221.8 1836.53 10217.9L1780.04 10161.3L1836.69 10104.8C1840.61 10100.9 1840.62 10094.5 1836.72 10090.6C1832.82 10086.7 1826.48 10086.7 1822.57 10090.6L1758.84 10154.2ZM2650.77 10172.5C2656.29 10172.5 2660.77 10168.1 2660.78 10162.6C2660.79 10157 2656.32 10152.5 2650.8 10152.5L2650.77 10172.5ZM1765.89 10171.2L2650.77 10172.5L2650.8 10152.5L1765.92 10151.2L1765.89 10171.2Z" fill="black"/>
<rect x="3976.15" y="10603" width="624.783" height="624.783" transform="rotate(-135 3976.15 10603)" fill="#00FF99"/>
<rect x="3977.44" y="9293.11" width="1229.56" height="1229.56" transform="rotate(45 3977.44 9293.11)" stroke="black" stroke-width="20"/>
<rect x="2650.78" y="9276.97" width="623.783" height="623.783" transform="rotate(-135 2650.78 9276.97)" fill="#006600" stroke="black"/>
<rect x="3092.57" y="9718.76" width="623.783" height="623.783" transform="rotate(-135 3092.57 9718.76)" fill="#009933" stroke="black"/>
<rect x="3535.66" y="10159.3" width="623.783" height="623.783" transform="rotate(-135 3535.66 10159.3)" fill="#00CC66" stroke="black"/>
<rect x="5301.51" y="11914.3" width="604.783" height="604.783" transform="rotate(-135 5301.51 11914.3)" fill="#99FFFF" stroke="black" stroke-width="20"/>
<rect x="5743.3" y="12369.5" width="623.783" height="623.783" transform="rotate(-135 5743.3 12369.5)" fill="#CCFFFF" stroke="black"/>
<rect x="6185.09" y="12811.3" width="623.783" height="623.783" transform="rotate(-135 6185.09 12811.3)" fill="white" stroke="black"/>
<rect x="4417.93" y="11044.1" width="623.783" height="623.783" transform="rotate(-135 4417.93 11044.1)" fill="#33FFCC" stroke="black"/>
<rect x="4859.72" y="11485.9" width="623.783" height="623.783" transform="rotate(-135 4859.72 11485.9)" fill="#66FFFF" stroke="black"/>
<rect x="1767.21" y="8393.39" width="623.783" height="623.783" transform="rotate(-135 1767.21 8393.39)" fill="black" stroke="black"/>
<rect x="2208.99" y="8835.18" width="623.783" height="623.783" transform="rotate(-135 2208.99 8835.18)" fill="#003300" stroke="black"/>
<rect x="10162.5" y="9293.1" width="1229.56" height="1229.56" transform="rotate(45 10162.5 9293.1)" stroke="black" stroke-width="20"/>
<rect x="10163.2" y="9720.74" width="623.783" height="623.783" transform="rotate(-45 10163.2 9720.74)" fill="#CC0066" stroke="black"/>
<rect x="9734.82" y="10162.5" width="604.783" height="604.783" transform="rotate(-45 9734.82 10162.5)" fill="#FF0099" stroke="black" stroke-width="20"/>
<rect x="11046.8" y="8837.16" width="623.783" height="623.783" transform="rotate(-45 11046.8 8837.16)" fill="#660000" stroke="black"/>
<rect x="10605" y="9278.95" width="623.783" height="623.783" transform="rotate(-45 10605 9278.95)" fill="#990033" stroke="black"/>
<rect x="8409.46" y="11487.9" width="604.783" height="604.783" transform="rotate(-45 8409.46 11487.9)" fill="#FF99FF" stroke="black" stroke-width="20"/>
<rect x="7954.23" y="11929.7" width="623.783" height="623.783" transform="rotate(-45 7954.23 11929.7)" fill="#FFCCFF" stroke="black"/>
<rect x="7512.45" y="12371.5" width="623.783" height="623.783" transform="rotate(-45 7512.45 12371.5)" fill="white" stroke="black"/>
<rect x="9279.6" y="10604.3" width="623.783" height="623.783" transform="rotate(-45 9279.6 10604.3)" fill="#FF33CC" stroke="black"/>
<rect x="8837.81" y="11046.1" width="623.783" height="623.783" transform="rotate(-45 8837.81 11046.1)" fill="#FF66FF" stroke="black"/>
<rect x="11930.3" y="7953.59" width="623.783" height="623.783" transform="rotate(-45 11930.3 7953.59)" fill="black" stroke="black"/>
<rect x="11488.5" y="8395.37" width="623.783" height="623.783" transform="rotate(-45 11488.5 8395.37)" fill="#330000" stroke="black"/>
<rect x="5744.59" y="9293.1" width="1229.56" height="1229.56" transform="rotate(45 5744.59 9293.1)" stroke="black" stroke-width="20"/>
<rect x="14580.4" y="9293.1" width="1229.56" height="1229.56" transform="rotate(45 14580.4 9293.1)" stroke="black" stroke-width="20"/>
<rect x="12813.2" y="9293.1" width="1229.56" height="1229.56" transform="rotate(45 12813.2 9293.1)" stroke="black" stroke-width="20"/>
<rect x="11487.8" y="8409.52" width="604.783" height="604.783" transform="rotate(45 11487.8 8409.52)" fill="#660000" stroke="black" stroke-width="20"/>
<rect x="10605" y="8395.38" width="623.783" height="623.783" transform="rotate(-45 10605 8395.38)" fill="#330000" stroke="black"/>
<rect x="10163.2" y="7953.59" width="623.783" height="623.783" transform="rotate(-45 10163.2 7953.59)" fill="black" stroke="black"/>
<rect x="4419.93" y="11046.1" width="623.783" height="623.783" transform="rotate(-45 4419.93 11046.1)" fill="#66FFFF" stroke="black"/>
<rect x="9278.88" y="10605" width="623.783" height="623.783" transform="rotate(45 9278.88 10605)" fill="#FF66FF" stroke="black"/>
<rect x="6628.87" y="8837.17" width="623.783" height="623.783" transform="rotate(-45 6628.87 8837.17)" fill="#000066" stroke="black"/>
<rect x="12385.6" y="10162.5" width="604.783" height="604.783" transform="rotate(-45 12385.6 10162.5)" fill="#FF9900" stroke="black" stroke-width="20"/>
<rect x="12813.9" y="10604.3" width="623.783" height="623.783" transform="rotate(-45 12813.9 10604.3)" fill="#FFCC33" stroke="black"/>
<rect x="13255.7" y="11046.1" width="623.783" height="623.783" transform="rotate(-45 13255.7 11046.1)" fill="#FFFF66" stroke="black"/>
<rect x="13710.9" y="11487.9" width="604.783" height="604.783" transform="rotate(-45 13710.9 11487.9)" fill="#FFFF99" stroke="black" stroke-width="20"/>
<rect x="14139.3" y="11929.7" width="623.783" height="623.783" transform="rotate(-45 14139.3 11929.7)" fill="#FFFFCC" stroke="black"/>
<rect x="11930.3" y="9720.74" width="623.783" height="623.783" transform="rotate(-45 11930.3 9720.74)" fill="#CC6600" stroke="black"/>
<rect x="11488.5" y="9278.95" width="623.783" height="623.783" transform="rotate(-45 11488.5 9278.95)" fill="#993300" stroke="black"/>
<rect x="9720.68" y="11046.8" width="623.783" height="623.783" transform="rotate(45 9720.68 11046.8)" fill="#FF99FF" stroke="black"/>
<rect x="5744.59" y="9734.88" width="604.783" height="604.783" transform="rotate(45 5744.59 9734.88)" fill="#0099FF" stroke="black" stroke-width="20"/>
<rect x="6186.38" y="9279.66" width="623.783" height="623.783" transform="rotate(45 6186.38 9279.66)" fill="#0066CC" stroke="black"/>
<rect x="6628.16" y="8837.87" width="623.783" height="623.783" transform="rotate(45 6628.16 8837.87)" fill="#003399" stroke="black"/>
<rect x="7069.95" y="8396.09" width="623.783" height="623.783" transform="rotate(45 7069.95 8396.09)" fill="#000066" stroke="black"/>
<rect x="7511.74" y="7954.3" width="623.783" height="623.783" transform="rotate(45 7511.74 7954.3)" fill="#000033" stroke="black"/>
<rect x="7953.53" y="7512.51" width="623.783" height="623.783" transform="rotate(45 7953.53 7512.51)" fill="black" stroke="black"/>
<rect x="5302.8" y="10163.2" width="623.783" height="623.783" transform="rotate(45 5302.8 10163.2)" fill="#33CCFF" stroke="black"/>
<rect x="4419.22" y="11060.3" width="604.783" height="604.783" transform="rotate(45 4419.22 11060.3)" fill="#99FFFF" stroke="black" stroke-width="20"/>
<rect x="3977.43" y="11488.6" width="623.783" height="623.783" transform="rotate(45 3977.43 11488.6)" fill="#CCFFFF" stroke="black"/>
<rect x="3535.64" y="11930.4" width="623.783" height="623.783" transform="rotate(45 3535.64 11930.4)" fill="white" stroke="black"/>
<rect x="13255" y="11060.3" width="604.783" height="604.783" transform="rotate(45 13255 11060.3)" fill="#FFFF99" stroke="black" stroke-width="20"/>
<rect x="16789.3" y="7512.51" width="623.783" height="623.783" transform="rotate(45 16789.3 7512.51)" fill="black" stroke="black"/>
<rect x="14580.3" y="9734.88" width="604.783" height="604.783" transform="rotate(45 14580.3 9734.88)" fill="#99FF00" stroke="black" stroke-width="20"/>
<rect x="14138.6" y="10163.2" width="623.783" height="623.783" transform="rotate(45 14138.6 10163.2)" fill="#CCFF33" stroke="black"/>
<rect x="12813.2" y="11488.6" width="623.783" height="623.783" transform="rotate(45 12813.2 11488.6)" fill="#FFFFCC" stroke="black"/>
<rect x="12371.4" y="11930.4" width="623.783" height="623.783" transform="rotate(45 12371.4 11930.4)" fill="white" stroke="black"/>
<rect x="15022.1" y="11930.4" width="623.783" height="623.783" transform="rotate(45 15022.1 11930.4)" fill="white" stroke="black"/>
<rect x="15022.1" y="9279.66" width="623.783" height="623.783" transform="rotate(45 15022.1 9279.66)" fill="#66CC00" stroke="black"/>
<rect x="15463.9" y="8837.87" width="623.783" height="623.783" transform="rotate(45 15463.9 8837.87)" fill="#339900" stroke="black"/>
<rect x="15905.7" y="8396.08" width="623.783" height="623.783" transform="rotate(45 15905.7 8396.08)" fill="#006600" stroke="black"/>
<rect x="16347.5" y="7954.3" width="623.783" height="623.783" transform="rotate(45 16347.5 7954.3)" fill="#003300" stroke="black"/>
<rect x="7967.66" y="10162.5" width="604.783" height="604.783" transform="rotate(-45 7967.66 10162.5)" fill="#9900FF" stroke="black" stroke-width="20"/>
<rect x="7525.88" y="10162.5" width="1229.56" height="1229.56" transform="rotate(-45 7525.88 10162.5)" stroke="black" stroke-width="20"/>
<rect x="8396.01" y="10604.3" width="623.783" height="623.783" transform="rotate(-45 8396.01 10604.3)" fill="#CC33FF" stroke="black"/>
<rect x="9293.02" y="11487.9" width="604.783" height="604.783" transform="rotate(-45 9293.02 11487.9)" fill="#FF99FF" stroke="black" stroke-width="20"/>
<rect x="9721.38" y="11929.7" width="623.783" height="623.783" transform="rotate(-45 9721.38 11929.7)" fill="#FFCCFF" stroke="black"/>
<rect x="10163.2" y="12371.5" width="623.783" height="623.783" transform="rotate(-45 10163.2 12371.5)" fill="white" stroke="black"/>
<rect x="7512.44" y="9720.75" width="623.783" height="623.783" transform="rotate(-45 7512.44 9720.75)" fill="#6600CC" stroke="black"/>
<rect x="7070.65" y="9278.96" width="623.783" height="623.783" transform="rotate(-45 7070.65 9278.96)" fill="#330099" stroke="black"/>
<rect x="6642.3" y="8837.18" width="604.783" height="604.783" transform="rotate(-45 6642.3 8837.18)" fill="#000066" stroke="black" stroke-width="20"/>
<rect x="6187.07" y="8395.39" width="623.783" height="623.783" transform="rotate(-45 6187.07 8395.39)" fill="#000033" stroke="black"/>
<rect x="5745.28" y="7953.6" width="623.783" height="623.783" transform="rotate(-45 5745.28 7953.6)" fill="black" stroke="black"/>
<path d="M3717.54 12553.4C3696.72 12574.2 3696.72 12608 3717.54 12628.8C3738.37 12649.6 3772.14 12649.6 3792.97 12628.8C3813.8 12608 3813.8 12574.2 3792.97 12553.4C3772.14 12532.5 3738.37 12532.5 3717.54 12553.4ZM5926.48 12553.4C5905.65 12574.2 5905.65 12608 5926.48 12628.8C5947.31 12649.6 5981.08 12649.6 6001.91 12628.8C6022.73 12608 6022.73 12574.2 6001.91 12553.4C5981.08 12532.6 5947.31 12532.6 5926.48 12553.4ZM3755.26 12601.1L5964.19 12601.1L5964.19 12581.1L3755.26 12581.1L3755.26 12601.1Z" fill="black"/>
<path d="M4160.62 12112.9C4139.79 12133.7 4139.79 12167.5 4160.62 12188.3C4181.45 12209.1 4215.21 12209.1 4236.04 12188.3C4256.87 12167.5 4256.87 12133.7 4236.04 12112.9C4215.21 12092 4181.45 12092 4160.62 12112.9ZM5484.69 12111.6C5463.86 12132.4 5463.86 12166.2 5484.69 12187C5505.52 12207.8 5539.29 12207.8 5560.12 12187C5580.95 12166.2 5580.95 12132.4 5560.12 12111.6C5539.29 12090.8 5505.52 12090.8 5484.69 12111.6ZM4198.34 12160.6L5522.41 12159.3L5522.4 12139.3L4198.32 12140.6L4198.34 12160.6Z" fill="black"/>
<path d="M4601.12 11669.8C4580.29 11690.6 4580.29 11724.4 4601.12 11745.2C4621.95 11766 4655.72 11766 4676.55 11745.2C4697.37 11724.4 4697.37 11690.6 4676.55 11669.8C4655.72 11649 4621.95 11649 4601.12 11669.8ZM5042.9 11669.8C5022.08 11690.6 5022.08 11724.4 5042.9 11745.2C5063.73 11766.1 5097.5 11766.1 5118.33 11745.2C5139.16 11724.4 5139.16 11690.6 5118.33 11669.8C5097.5 11649 5063.73 11649 5042.9 11669.8ZM4638.83 11717.5L5080.62 11717.5L5080.62 11697.5L4638.83 11697.5L4638.83 11717.5Z" fill="black"/>
<path d="M6369.55 12554.7C6348.72 12575.5 6348.72 12609.3 6369.55 12630.1C6390.38 12650.9 6424.15 12650.9 6444.98 12630.1C6465.8 12609.3 6465.8 12575.5 6444.98 12554.7C6424.15 12533.8 6390.38 12533.8 6369.55 12554.7ZM7694.92 12554.7C7674.09 12575.5 7674.09 12609.2 7694.92 12630.1C7715.75 12650.9 7749.52 12650.9 7770.34 12630.1C7791.17 12609.2 7791.17 12575.5 7770.34 12554.7C7749.52 12533.8 7715.75 12533.8 7694.92 12554.7ZM6407.26 12602.4L7732.63 12602.4L7732.63 12582.4L6407.26 12582.4L6407.26 12602.4Z" fill="black"/>
<path d="M6369.55 7695C6348.72 7715.82 6348.72 7749.59 6369.55 7770.42C6390.38 7791.25 6424.15 7791.25 6444.98 7770.42C6465.8 7749.59 6465.8 7715.82 6444.98 7695C6424.15 7674.17 6390.38 7674.17 6369.55 7695ZM7694.92 7694.99C7674.09 7715.82 7674.09 7749.59 7694.92 7770.41C7715.75 7791.24 7749.52 7791.24 7770.34 7770.41C7791.17 7749.59 7791.17 7715.82 7770.34 7694.99C7749.52 7674.16 7715.75 7674.16 7694.92 7694.99ZM6407.26 7742.71L7732.63 7742.7L7732.63 7722.7L6407.26 7722.71L6407.26 7742.71Z" fill="black"/>
<path d="M10786.2 7693.69C10765.3 7714.52 10765.3 7748.29 10786.2 7769.12C10807 7789.95 10840.8 7789.95 10861.6 7769.12C10882.4 7748.29 10882.4 7714.52 10861.6 7693.69C10840.8 7672.87 10807 7672.87 10786.2 7693.69ZM12111.5 7693.69C12090.7 7714.52 12090.7 7748.28 12111.5 7769.11C12132.4 7789.94 12166.1 7789.94 12187 7769.11C12207.8 7748.28 12207.8 7714.52 12187 7693.69C12166.1 7672.86 12132.4 7672.86 12111.5 7693.69ZM10823.9 7741.41L12149.2 7741.4L12149.2 7721.4L10823.9 7721.41L10823.9 7741.41Z" fill="black"/>
<path d="M10787.4 12554.7C10766.6 12575.5 10766.6 12609.2 10787.4 12630.1C10808.3 12650.9 10842 12650.9 10862.9 12630.1C10883.7 12609.2 10883.7 12575.5 10862.9 12554.7C10842 12533.8 10808.3 12533.8 10787.4 12554.7ZM12112.8 12554.6C12092 12575.5 12092 12609.2 12112.8 12630.1C12133.6 12650.9 12167.4 12650.9 12188.2 12630.1C12209.1 12609.2 12209.1 12575.5 12188.2 12554.6C12167.4 12533.8 12133.6 12533.8 12112.8 12554.6ZM10825.2 12602.4L12150.5 12602.4L12150.5 12582.4L10825.2 12582.4L10825.2 12602.4Z" fill="black"/>
<path d="M8136.7 12554.7C8115.87 12575.5 8115.87 12609.3 8136.7 12630.1C8157.53 12650.9 8191.3 12650.9 8212.13 12630.1C8232.95 12609.3 8232.95 12575.5 8212.13 12554.7C8191.3 12533.8 8157.53 12533.8 8136.7 12554.7ZM10345.6 12554.7C10324.8 12575.5 10324.8 12609.3 10345.6 12630.1C10366.5 12650.9 10400.2 12650.9 10421.1 12630.1C10441.9 12609.3 10441.9 12575.5 10421.1 12554.7C10400.2 12533.8 10366.5 12533.8 10345.6 12554.7ZM8174.41 12602.4L10383.4 12602.4L10383.4 12582.4L8174.41 12582.4L8174.41 12602.4Z" fill="black"/>
<path d="M8136.72 7694.98C8115.89 7715.81 8115.89 7749.58 8136.72 7770.41C8157.54 7791.23 8191.31 7791.23 8212.14 7770.41C8232.97 7749.58 8232.97 7715.81 8212.14 7694.98C8191.31 7674.15 8157.54 7674.15 8136.72 7694.98ZM10345.7 7694.99C10324.8 7715.81 10324.8 7749.58 10345.7 7770.41C10366.5 7791.24 10400.2 7791.24 10421.1 7770.41C10441.9 7749.58 10441.9 7715.81 10421.1 7694.99C10400.2 7674.16 10366.5 7674.16 10345.7 7694.99ZM8174.43 7742.69L10383.4 7742.7L10383.4 7722.7L8174.43 7722.69L8174.43 7742.69Z" fill="black"/>
<path d="M12554.6 12554.7C12533.8 12575.5 12533.8 12609.2 12554.6 12630.1C12575.4 12650.9 12609.2 12650.9 12630 12630.1C12650.8 12609.2 12650.8 12575.5 12630 12554.7C12609.2 12533.8 12575.4 12533.8 12554.6 12554.7ZM14763.5 12554.7C14742.7 12575.5 14742.7 12609.3 14763.5 12630.1C14784.4 12650.9 14818.1 12650.9 14839 12630.1C14859.8 12609.3 14859.8 12575.5 14839 12554.7C14818.1 12533.8 14784.4 12533.8 14763.5 12554.7ZM12592.3 12602.4L14801.2 12602.4L14801.2 12582.4L12592.3 12582.4L12592.3 12602.4Z" fill="black"/>
<rect x="10603.7" y="8835.89" width="623.783" height="623.783" transform="rotate(-45 10603.7 8835.89)" fill="#990000" stroke="black"/>
<rect x="10163.2" y="8837.16" width="623.783" height="623.783" transform="rotate(-45 10163.2 8837.16)" fill="#CC0000" stroke="black"/>
<rect x="9734.82" y="8837.17" width="604.783" height="604.783" transform="rotate(-45 9734.82 8837.17)" fill="#FF0000" stroke="black" stroke-width="20"/>
<rect x="6187.09" y="8837.17" width="623.783" height="623.783" transform="rotate(-45 6187.09 8837.17)" fill="#000099" stroke="black"/>
<rect x="5745.29" y="8837.16" width="623.783" height="623.783" transform="rotate(-45 5745.29 8837.16)" fill="#0000CC" stroke="black"/>
<rect x="5316.94" y="8837.17" width="604.783" height="604.783" transform="rotate(-45 5316.94 8837.17)" fill="#0000FF" stroke="black" stroke-width="20"/>
<rect x="3534.36" y="7511.22" width="623.783" height="623.783" transform="rotate(45 3534.36 7511.22)" fill="black" stroke="black"/>
<rect x="3092.57" y="7953.01" width="623.783" height="623.783" transform="rotate(45 3092.57 7953.01)" fill="#003300" stroke="black"/>
<rect x="2650.79" y="9263.53" width="604.783" height="604.783" transform="rotate(-135 2650.79 9263.53)" fill="#006600" stroke="black" stroke-width="20"/>
<path d="M2392.19 8135.48C2371.36 8156.31 2371.36 8190.08 2392.19 8210.91C2413.01 8231.73 2446.78 8231.73 2467.61 8210.91C2488.44 8190.08 2488.44 8156.31 2467.61 8135.48C2446.78 8114.65 2413.01 8114.65 2392.19 8135.48ZM2833.97 8135.49C2813.14 8156.31 2813.14 8190.08 2833.97 8210.91C2854.8 8231.74 2888.57 8231.74 2909.39 8210.91C2930.22 8190.08 2930.22 8156.31 2909.39 8135.49C2888.57 8114.66 2854.8 8114.66 2833.97 8135.49ZM2429.9 8183.19L2871.68 8183.2L2871.68 8163.2L2429.9 8163.19L2429.9 8183.19Z" fill="black"/>
<rect x="15905.7" y="9264.81" width="604.783" height="604.783" transform="rotate(-135 15905.7 9264.81)" fill="#006600" stroke="black" stroke-width="20"/>
<rect x="15022.1" y="8394.67" width="623.783" height="623.783" transform="rotate(-135 15022.1 8394.67)" fill="black" stroke="black"/>
<rect x="15463.9" y="8836.46" width="623.783" height="623.783" transform="rotate(-135 15463.9 8836.46)" fill="#003300" stroke="black"/>
<rect x="15022.8" y="8837.17" width="623.783" height="623.783" transform="rotate(-45 15022.8 8837.17)" fill="#009900" stroke="black"/>
<rect x="14582.3" y="8838.45" width="623.783" height="623.783" transform="rotate(-45 14582.3 8838.45)" fill="#00CC00" stroke="black"/>
<rect x="14139.8" y="8838.45" width="624.783" height="624.783" transform="rotate(-45 14139.8 8838.45)" fill="#00FF00"/>
<path d="M8579.79 12114.1C8558.96 12135 8558.96 12168.7 8579.79 12189.6C8600.62 12210.4 8634.39 12210.4 8655.21 12189.6C8676.04 12168.7 8676.04 12135 8655.21 12114.1C8634.39 12093.3 8600.62 12093.3 8579.79 12114.1ZM9903.86 12112.9C9883.04 12133.7 9883.04 12167.5 9903.86 12188.3C9924.69 12209.1 9958.46 12209.1 9979.29 12188.3C10000.1 12167.5 10000.1 12133.7 9979.29 12112.9C9958.46 12092 9924.69 12092 9903.86 12112.9ZM8617.51 12161.9L9941.59 12160.6L9941.57 12140.6L8617.49 12141.9L8617.51 12161.9Z" fill="black"/>
<path d="M9020.29 11671.1C8999.47 11691.9 8999.47 11725.7 9020.29 11746.5C9041.12 11767.3 9074.89 11767.3 9095.72 11746.5C9116.55 11725.7 9116.55 11691.9 9095.72 11671.1C9074.89 11650.2 9041.12 11650.2 9020.29 11671.1ZM9462.08 11671.1C9441.25 11691.9 9441.25 11725.7 9462.08 11746.5C9482.9 11767.3 9516.67 11767.3 9537.5 11746.5C9558.33 11725.7 9558.33 11691.9 9537.5 11671.1C9516.67 11650.2 9482.9 11650.2 9462.08 11671.1ZM9058.01 11718.8L9499.79 11718.8L9499.79 11698.8L9058.01 11698.8L9058.01 11718.8Z" fill="black"/>
<path d="M12997.7 12114.1C12976.8 12135 12976.8 12168.7 12997.7 12189.6C13018.5 12210.4 13052.3 12210.4 13073.1 12189.6C13093.9 12168.7 13093.9 12135 13073.1 12114.1C13052.3 12093.3 13018.5 12093.3 12997.7 12114.1ZM14321.7 12112.9C14300.9 12133.7 14300.9 12167.5 14321.7 12188.3C14342.6 12209.1 14376.3 12209.1 14397.2 12188.3C14418 12167.5 14418 12133.7 14397.2 12112.9C14376.3 12092 14342.6 12092 14321.7 12112.9ZM13035.4 12161.9L14359.5 12160.6L14359.4 12140.6L13035.4 12141.9L13035.4 12161.9Z" fill="black"/>
<path d="M13438.2 11671.1C13417.3 11691.9 13417.3 11725.7 13438.2 11746.5C13459 11767.3 13492.8 11767.3 13513.6 11746.5C13534.4 11725.7 13534.4 11691.9 13513.6 11671.1C13492.8 11650.2 13459 11650.2 13438.2 11671.1ZM13880 11671.1C13859.1 11691.9 13859.1 11725.7 13880 11746.5C13900.8 11767.3 13934.5 11767.3 13955.4 11746.5C13976.2 11725.7 13976.2 11691.9 13955.4 11671.1C13934.5 11650.2 13900.8 11650.2 13880 11671.1ZM13475.9 11718.8L13917.7 11718.8L13917.7 11698.8L13475.9 11698.8L13475.9 11718.8Z" fill="black"/>
<path d="M6811.33 8136.78C6790.51 8157.61 6790.51 8191.38 6811.33 8212.21C6832.16 8233.03 6865.93 8233.03 6886.76 8212.21C6907.59 8191.38 6907.59 8157.61 6886.76 8136.78C6865.93 8115.95 6832.16 8115.95 6811.33 8136.78ZM7253.12 8136.79C7232.29 8157.62 7232.29 8191.38 7253.12 8212.21C7273.94 8233.04 7307.71 8233.04 7328.54 8212.21C7349.37 8191.38 7349.37 8157.62 7328.54 8136.79C7307.71 8115.96 7273.94 8115.96 7253.12 8136.79ZM6849.05 8184.49L7290.83 8184.5L7290.83 8164.5L6849.05 8164.49L6849.05 8184.49Z" fill="black"/>
<path d="M11228 8135.48C11207.1 8156.31 11207.1 8190.08 11228 8210.91C11248.8 8231.73 11282.5 8231.73 11303.4 8210.91C11324.2 8190.08 11324.2 8156.31 11303.4 8135.48C11282.5 8114.65 11248.8 8114.65 11228 8135.48ZM11669.7 8135.49C11648.9 8156.31 11648.9 8190.08 11669.7 8210.91C11690.6 8231.74 11724.3 8231.74 11745.2 8210.91C11766 8190.08 11766 8156.31 11745.2 8135.49C11724.3 8114.66 11690.6 8114.66 11669.7 8135.49ZM11265.7 8183.19L11707.4 8183.2L11707.4 8163.2L11265.7 8163.19L11265.7 8183.19Z" fill="black"/>
<path d="M15647.1 8136.77C15626.3 8157.59 15626.3 8191.36 15647.1 8212.19C15667.9 8233.02 15701.7 8233.02 15722.5 8212.19C15743.4 8191.36 15743.4 8157.59 15722.5 8136.77C15701.7 8115.94 15667.9 8115.94 15647.1 8136.77ZM16088.9 8136.77C16068.1 8157.6 16068.1 8191.37 16088.9 8212.2C16109.7 8233.02 16143.5 8233.02 16164.3 8212.2C16185.1 8191.37 16185.1 8157.6 16164.3 8136.77C16143.5 8115.94 16109.7 8115.94 16088.9 8136.77ZM15684.8 8184.48L16126.6 8184.48L16126.6 8164.48L15684.8 8164.48L15684.8 8184.48Z" fill="black"/>
<path d="M12554.6 7694.98C12533.8 7715.81 12533.8 7749.58 12554.6 7770.4C12575.4 7791.23 12609.2 7791.23 12630 7770.4C12650.8 7749.58 12650.8 7715.81 12630 7694.98C12609.2 7674.15 12575.4 7674.15 12554.6 7694.98ZM14763.5 7694.98C14742.7 7715.81 14742.7 7749.58 14763.5 7770.4C14784.4 7791.23 14818.1 7791.23 14839 7770.4C14859.8 7749.58 14859.8 7715.81 14839 7694.98C14818.1 7674.15 14784.4 7674.15 14763.5 7694.98ZM12592.3 7742.69L14801.2 7742.69L14801.2 7722.69L12592.3 7722.69L12592.3 7742.69Z" fill="black"/>
<path d="M15205.3 7694.98C15184.5 7715.81 15184.5 7749.58 15205.3 7770.41C15226.1 7791.23 15259.9 7791.23 15280.7 7770.41C15301.6 7749.58 15301.6 7715.81 15280.7 7694.98C15259.9 7674.15 15226.1 7674.15 15205.3 7694.98ZM16530.7 7694.98C16509.9 7715.81 16509.9 7749.58 16530.7 7770.41C16551.5 7791.23 16585.3 7791.23 16606.1 7770.41C16626.9 7749.58 16626.9 7715.81 16606.1 7694.98C16585.3 7674.15 16551.5 7674.15 16530.7 7694.98ZM15243 7742.69L16568.4 7742.69L16568.4 7722.69L15243 7722.69L15243 7742.69Z" fill="black"/>
<path d="M1950.4 7693.7C1929.57 7714.52 1929.57 7748.29 1950.4 7769.12C1971.23 7789.95 2004.99 7789.95 2025.82 7769.12C2046.65 7748.29 2046.65 7714.52 2025.82 7693.7C2004.99 7672.87 1971.23 7672.87 1950.4 7693.7ZM3275.76 7693.7C3254.93 7714.53 3254.93 7748.3 3275.76 7769.12C3296.58 7789.95 3330.35 7789.95 3351.18 7769.12C3372.01 7748.3 3372.01 7714.53 3351.18 7693.7C3330.35 7672.87 3296.58 7672.87 3275.76 7693.7ZM1988.11 7741.41L3313.47 7741.41L3313.47 7721.41L1988.11 7721.41L1988.11 7741.41Z" fill="black"/>
<path d="M3718.84 7694.97C3698.01 7715.8 3698.01 7749.57 3718.84 7770.4C3739.66 7791.23 3773.43 7791.23 3794.26 7770.4C3815.09 7749.57 3815.09 7715.8 3794.26 7694.97C3773.43 7674.15 3739.66 7674.15 3718.84 7694.97ZM5927.77 7694.98C5906.94 7715.81 5906.94 7749.58 5927.77 7770.41C5948.6 7791.23 5982.37 7791.23 6003.2 7770.41C6024.02 7749.58 6024.02 7715.81 6003.2 7694.98C5982.37 7674.15 5948.6 7674.15 5927.77 7694.98ZM3756.55 7742.69L5965.48 7742.69L5965.48 7722.69L3756.55 7722.69L3756.55 7742.69Z" fill="black"/>
</svg>
