<svg width="4375" height="4999" viewBox="0 0 4375 4999" fill="none" xmlns="http://www.w3.org/2000/svg">
<rect x="3749.27" y="3124.38" width="624.783" height="624.783" transform="rotate(-90 3749.27 3124.38)" fill="#FF0099"/>
<rect x="3436.88" y="4998.77" width="624.783" height="937.169" transform="rotate(-90 3436.88 4998.77)" fill="#FF99FF"/>
<rect x="2499.71" y="625.208" width="1874.34" height="624.783" fill="#660000"/>
<rect x="1250.14" y="2499.63" width="624.783" height="624.783" fill="#0099FF"/>
<rect x="0.574219" y="1250.08" width="624.783" height="1874.35" transform="rotate(-90 0.574219 1250.08)" fill="#000066"/>
<rect x="2499.71" y="625.253" width="624.783" height="1874.34" transform="rotate(-90 2499.71 625.253)" fill="#330000"/>
<rect x="0.574219" y="0.515625" width="1874.35" height="624.783" fill="#000033"/>
<rect x="1874.92" y="0.469727" width="624.783" height="624.783" fill="#003300"/>
<rect x="0.574219" y="3124.38" width="624.783" height="624.783" transform="rotate(-90 0.574219 3124.38)" fill="#9900FF"/>
<rect x="3124.49" y="2499.56" width="624.783" height="624.783" transform="rotate(90 3124.49 2499.56)" fill="#FF9900"/>
<rect x="2187.34" y="4366.22" width="1249.54" height="624.783" fill="#FFFF99"/>
<rect x="937.748" y="4366.21" width="1249.54" height="624.783" fill="#99FFFF"/>
<rect x="937.748" y="3741.42" width="1249.54" height="624.783" fill="#66FFFF"/>
<rect x="1874.92" y="2499.6" width="624.783" height="624.783" fill="#99FF00"/>
<rect x="2499.71" y="1250.04" width="624.783" height="624.783" transform="rotate(180 2499.71 1250.04)" fill="#006600"/>
<rect x="2499.71" y="1874.81" width="624.783" height="624.783" fill="#CC6600"/>
<rect x="2499.71" y="1250.03" width="624.783" height="624.783" fill="#993300"/>
<rect x="0.574219" y="1874.86" width="624.783" height="624.783" fill="#6600CC"/>
<rect x="0.574219" y="1250.08" width="624.783" height="624.783" fill="#330099"/>
<rect x="625.357" y="3124.38" width="624.783" height="624.783" transform="rotate(-90 625.357 3124.38)" fill="#0000FF"/>
<rect x="625.357" y="1874.86" width="624.783" height="624.783" fill="#0000CC"/>
<rect x="625.357" y="1250.08" width="624.783" height="624.783" fill="#000099"/>
<rect x="937.748" y="3124.43" width="937.175" height="624.783" fill="#33CCFF"/>
<rect x="3436.88" y="3749.21" width="624.783" height="937.169" transform="rotate(-90 3436.88 3749.21)" fill="#FF33CC"/>
<rect x="3436.88" y="3749.22" width="937.169" height="624.783" fill="#FF66FF"/>
<rect x="0.572266" y="4990.99" width="624.783" height="937.176" transform="rotate(-90 0.572266 4990.99)" fill="#FF99FF"/>
<rect x="0.572266" y="3741.44" width="937.176" height="624.783" fill="#FF66FF"/>
<rect x="2187.31" y="3741.43" width="1249.56" height="624.773" fill="#FFFF66"/>
<rect x="2499.71" y="3124.53" width="937.174" height="624.773" fill="#FFCC33"/>
<rect x="1874.92" y="3124.4" width="624.783" height="624.783" fill="#CCFF33"/>
<rect x="1250.14" y="1874.82" width="624.783" height="624.783" fill="#0066CC"/>
<rect x="1250.14" y="1250.04" width="624.783" height="624.783" fill="#003399"/>
<rect x="1874.92" y="1874.77" width="624.783" height="624.783" fill="#66CC00"/>
<rect x="1874.92" y="1249.99" width="624.783" height="624.783" fill="#339900"/>
<rect x="3749.27" y="2499.59" width="624.783" height="624.783" transform="rotate(-90 3749.27 2499.59)" fill="#CC0066"/>
<rect x="3749.27" y="1874.81" width="624.783" height="624.783" transform="rotate(-90 3749.27 1874.81)" fill="#990033"/>
<rect x="3124.49" y="1874.81" width="624.783" height="624.783" transform="rotate(-90 3124.49 1874.81)" fill="#990000"/>
<rect x="3124.49" y="2499.65" width="624.783" height="624.783" transform="rotate(-90 3124.49 2499.65)" fill="#CC0000"/>
<rect x="3124.49" y="3124.5" width="624.783" height="624.783" transform="rotate(-90 3124.49 3124.5)" fill="#FF0000"/>
<rect x="0.574219" y="3747.31" width="624.783" height="937.174" transform="rotate(-90 0.574219 3747.31)" fill="#CC33FF"/>
</svg>
