<?xml version="1.0" encoding="UTF-8"?>
<svg id="Layer_1" xmlns="http://www.w3.org/2000/svg" version="1.1" viewBox="0 0 254 115">
  <!-- Generator: Adobe Illustrator 29.4.0, SVG Export Plug-In . SVG Version: 2.1.0 Build 152)  -->
  <defs>
    <style>
      .st0, .st1 {
        fill: #09f;
      }

      .st1 {
        font-family: Lexend-Medium, Lexend;
        font-size: 12px;
        font-weight: 500;
      }

      .st2 {
        fill: none;
        stroke: #191919;
        stroke-linecap: round;
        stroke-miterlimit: 10;
        stroke-width: 3px;
      }
    </style>
  </defs>
  <path class="st2" d="M11.1,70.5c2.7-2.9,5.3-5.8,8-8.7,2.7-2.8,5.3-5.6,8-8.3,2.7-2.7,5.3-5.2,8-7.5,2.7-2.4,5.3-4.5,8-6.5,2.7-1.9,5.3-3.7,8-5.1,2.7-1.5,5.3-2.6,8-3.5s5.3-1.5,8-1.8,5.3-.3,8,0,5.3.9,8,1.8,5.3,2.1,8,3.5c2.7,1.5,5.3,3.2,8,5.1,2.7,1.9,5.3,4.1,8,6.5s5.3,4.9,8,7.5c2.7,2.7,5.3,5.4,8,8.3,2.7,2.8,5.3,5.8,8,8.7s5.3,5.8,8,8.7c2.7,2.8,5.3,5.6,8,8.3,2.7,2.7,5.3,5.2,8,7.5,2.7,2.4,5.3,4.5,8,6.5,2.7,1.9,5.3,3.7,8,5.1,2.7,1.5,5.3,2.6,8,3.5s5.3,1.5,8,1.8,5.3.3,8,0,5.3-.9,8-1.8,5.3-2.1,8-3.5c2.7-1.5,5.3-3.2,8-5.1s5.3-4.1,8-6.5,5.3-4.9,8-7.5c2.7-2.7,5.3-5.4,8-8.3,2.7-2.8,5.3-5.8,8-8.7"/>
  <path class="st0" d="M130.2,16l5-10h1.4l-4.9,10h-1.5,0Z"/>
  <text class="st1" transform="translate(11.1 15.1)"><tspan x="0" y="0">High wavelength</tspan></text>
  <text class="st1" transform="translate(156 15.1)"><tspan x="0" y="0">Low frequency</tspan></text>
</svg>