<?xml version="1.0" encoding="UTF-8"?>
<svg id="Layer_1" xmlns="http://www.w3.org/2000/svg" version="1.1" viewBox="0 0 257 115">
  <!-- Generator: Adobe Illustrator 29.4.0, SVG Export Plug-In . SVG Version: 2.1.0 Build 152)  -->
  <defs>
    <style>
      .st0, .st1 {
        fill: #09f;
      }

      .st1 {
        font-family: Lexend-Medium, Lexend;
        font-size: 12px;
        font-weight: 500;
      }

      .st2 {
        fill: none;
        stroke: #191919;
        stroke-linecap: round;
        stroke-miterlimit: 10;
        stroke-width: 3px;
      }
    </style>
  </defs>
  <path class="st0" d="M123.4,13.7l5-10h1.4l-4.9,10h-1.5,0Z"/>
  <path class="st2" d="M2.1,70.5c.3-2.9.7-5.8,1-8.7.3-2.8.7-5.6,1-8.3.3-2.7.7-5.2,1-7.5.3-2.4.7-4.5,1-6.5.3-1.9.7-3.7,1-5.1.3-1.5.7-2.6,1-3.5.3-.9.7-1.5,1-1.8s.7-.3,1,0,.7.9,1,1.8.7,2.1,1,3.5.7,3.2,1,5.1c.3,1.9.7,4.1,1,6.5s.7,4.9,1,7.5.7,5.4,1,8.3c.3,2.8.7,5.8,1,8.7s.7,5.8,1,8.7c.3,2.8.7,5.6,1,8.3.3,2.7.7,5.2,1,7.5.3,2.4.7,4.5,1,6.5.3,1.9.7,3.7,1,5.1.3,1.5.7,2.6,1,3.5s.7,1.5,1,1.8.7.3,1,0,.7-.9,1-1.8.7-2.1,1-3.5c.3-1.5.7-3.2,1-5.1s.7-4.1,1-6.5.7-4.9,1-7.5c.3-2.7.7-5.4,1-8.3.3-2.8.7-5.8,1-8.7.3-2.9.7-5.8,1-8.7.3-2.8.7-5.6,1-8.3s.7-5.2,1-7.5c.3-2.4.7-4.5,1-6.5.3-1.9.7-3.7,1-5.1s.7-2.6,1-3.5.7-1.5,1-1.8.7-.3,1,0,.7.9,1,1.8.7,2.1,1,3.5.7,3.2,1,5.1c.3,1.9.7,4.1,1,6.5s.7,4.9,1,7.5.7,5.4,1,8.3c.3,2.8.7,5.8,1,8.7s.7,5.8,1,8.7c.3,2.8.7,5.6,1,8.3.3,2.7.7,5.2,1,7.5.3,2.4.7,4.5,1,6.5.3,1.9.7,3.7,1,5.1.3,1.5.7,2.6,1,3.5s.7,1.5,1,1.8.7.3,1,0,.7-.9,1-1.8.7-2.1,1-3.5c.3-1.5.7-3.2,1-5.1s.7-4.1,1-6.5.7-4.9,1-7.5c.3-2.7.7-5.4,1-8.3.3-2.8.7-5.8,1-8.7.3-2.9.7-5.8,1-8.7.3-2.8.7-5.6,1-8.3.3-2.7.7-5.2,1-7.5.3-2.4.7-4.5,1-6.5.3-1.9.7-3.7,1-5.1.3-1.5.7-2.6,1-3.5s.7-1.5,1-1.8.7-.3,1,0,.7.9,1,1.8.7,2.1,1,3.5c.3,1.5.7,3.2,1,5.1.3,1.9.7,4.1,1,6.5s.7,4.9,1,7.5.7,5.4,1,8.3c.3,2.8.7,5.8,1,8.7s.7,5.8,1,8.7c.3,2.8.7,5.6,1,8.3.3,2.7.7,5.2,1,7.5.3,2.4.7,4.5,1,6.5.3,1.9.7,3.7,1,5.1.3,1.5.7,2.6,1,3.5s.7,1.5,1,1.8.7.3,1,0,.7-.9,1-1.8.7-2.1,1-3.5c.3-1.5.7-3.2,1-5.1s.7-4.1,1-6.5.7-4.9,1-7.5c.3-2.7.7-5.4,1-8.3.3-2.8.7-5.8,1-8.7.3-2.9.7-5.8,1-8.7.3-2.8.7-5.6,1-8.3s.7-5.2,1-7.5c.3-2.4.7-4.5,1-6.5.3-1.9.7-3.7,1-5.1.3-1.5.7-2.6,1-3.5s.7-1.5,1-1.8.7-.3,1,0,.7.9,1,1.8.7,2.1,1,3.5c.3,1.5.7,3.2,1,5.1.3,1.9.7,4.1,1,6.5s.7,4.9,1,7.5c.3,2.7.7,5.4,1,8.3.3,2.8.7,5.8,1,8.7s.7,5.8,1,8.7c.3,2.8.7,5.6,1,8.3.3,2.7.7,5.2,1,7.5.3,2.4.7,4.5,1,6.5.3,1.9.7,3.7,1,5.1.3,1.5.7,2.6,1,3.5s.7,1.5,1,1.8.7.3,1,0,.7-.9,1-1.8.7-2.1,1-3.5c.3-1.5.7-3.2,1-5.1s.7-4.1,1-6.5.7-4.9,1-7.5c.3-2.7.7-5.4,1-8.3.3-2.8.7-5.8,1-8.7.3-2.9.7-5.8,1-8.7.3-2.8.7-5.6,1-8.3s.7-5.2,1-7.5c.3-2.4.7-4.5,1-6.5.3-1.9.7-3.7,1-5.1.3-1.5.7-2.6,1-3.5.3-.9.7-1.5,1-1.8s.7-.3,1,0,.7.9,1,1.8.7,2.1,1,3.5c.3,1.5.7,3.2,1,5.1.3,1.9.7,4.1,1,6.5s.7,4.9,1,7.5c.3,2.7.7,5.4,1,8.3.3,2.8.7,5.8,1,8.7s.7,5.8,1,8.7c.3,2.8.7,5.6,1,8.3.3,2.7.7,5.2,1,7.5.3,2.4.7,4.5,1,6.5.3,1.9.7,3.7,1,5.1.3,1.5.7,2.6,1,3.5s.7,1.5,1,1.8.7.3,1,0,.7-.9,1-1.8.7-2.1,1-3.5c.3-1.5.7-3.2,1-5.1s.7-4.1,1-6.5.7-4.9,1-7.5c.3-2.7.7-5.4,1-8.3.3-2.8.7-5.8,1-8.7.3-2.9.7-5.8,1-8.7.3-2.8.7-5.6,1-8.3s.7-5.2,1-7.5c.3-2.4.7-4.5,1-6.5.3-1.9.7-3.7,1-5.1.3-1.5.7-2.6,1-3.5s.7-1.5,1-1.8.7-.3,1,0,.7.9,1,1.8.7,2.1,1,3.5c.3,1.5.7,3.2,1,5.1.3,1.9.7,4.1,1,6.5s.7,4.9,1,7.5c.3,2.7.7,5.4,1,8.3.3,2.8.7,5.8,1,8.7s.7,5.8,1,8.7c.3,2.8.7,5.6,1,8.3.3,2.7.7,5.2,1,7.5.3,2.4.7,4.5,1,6.5.3,1.9.7,3.7,1,5.1.3,1.5.7,2.6,1,3.5s.7,1.5,1,1.8.7.3,1,0,.7-.9,1-1.8.7-2.1,1-3.5c.3-1.5.7-3.2,1-5.1s.7-4.1,1-6.5.7-4.9,1-7.5c.3-2.7.7-5.4,1-8.3.3-2.8.7-5.8,1-8.7.3-2.9.7-5.8,1-8.7.3-2.8.7-5.6,1-8.3s.7-5.2,1-7.5c.3-2.4.7-4.5,1-6.5.3-1.9.7-3.7,1-5.1.3-1.5.7-2.6,1-3.5s.7-1.5,1-1.8.7-.3,1,0,.7.9,1,1.8.7,2.1,1,3.5c.3,1.5.7,3.2,1,5.1.3,1.9.7,4.1,1,6.5s.7,4.9,1,7.5c.3,2.7.7,5.4,1,8.3.3,2.8.7,5.8,1,8.7s.7,5.8,1,8.7c.3,2.8.7,5.6,1,8.3.3,2.7.7,5.2,1,7.5.3,2.4.7,4.5,1,6.5.3,1.9.7,3.7,1,5.1.3,1.5.7,2.6,1,3.5s.7,1.5,1,1.8.7.3,1,0,.7-.9,1-1.8.7-2.1,1-3.5c.3-1.5.7-3.2,1-5.1s.7-4.1,1-6.5.7-4.9,1-7.5c.3-2.7.7-5.4,1-8.3.3-2.8.7-5.8,1-8.7.3-2.9.7-5.8,1-8.7.3-2.8.7-5.6,1-8.3s.7-5.2,1-7.5c.3-2.4.7-4.5,1-6.5.3-1.9.7-3.7,1-5.1.3-1.5.7-2.6,1-3.5s.7-1.5,1-1.8.7-.3,1,0,.7.9,1,1.8.7,2.1,1,3.5c.3,1.5.7,3.2,1,5.1.3,1.9.7,4.1,1,6.5s.7,4.9,1,7.5c.3,2.7.7,5.4,1,8.3.3,2.8.7,5.8,1,8.7s.7,5.8,1,8.7c.3,2.8.7,5.6,1,8.3.3,2.7.7,5.2,1,7.5.3,2.4.7,4.5,1,6.5.3,1.9.7,3.7,1,5.1.3,1.5.7,2.6,1,3.5s.7,1.5,1,1.8.7.3,1,0,.7-.9,1-1.8.7-2.1,1-3.5c.3-1.5.7-3.2,1-5.1s.7-4.1,1-6.5.7-4.9,1-7.5c.3-2.7.7-5.4,1-8.3.3-2.8.7-5.8,1-8.7"/>
  <text class="st1" transform="translate(4.3 12.7)"><tspan x="0" y="0">Low wavelength</tspan></text>
  <text class="st1" transform="translate(149.2 12.7)"><tspan x="0" y="0">High frequency</tspan></text>
</svg>