<svg width="18558" height="18557" viewBox="0 0 18558 18557" fill="none" xmlns="http://www.w3.org/2000/svg">
<rect x="3976.85" y="10589.1" width="604.783" height="604.783" transform="rotate(-135 3976.85 10589.1)" fill="#00FF99" stroke="white" stroke-width="20"/>
<rect x="2651.49" y="9277.86" width="624.783" height="624.783" transform="rotate(-135 2651.49 9277.86)" fill="#006600"/>
<rect x="3093.28" y="9719.64" width="624.783" height="624.783" transform="rotate(-135 3093.28 9719.64)" fill="#009933"/>
<rect x="5302.22" y="11914.4" width="604.783" height="604.783" transform="rotate(-135 5302.22 11914.4)" fill="#99FFFF" stroke="white" stroke-width="20"/>
<rect x="5744.01" y="12370.4" width="624.783" height="624.783" transform="rotate(-135 5744.01 12370.4)" fill="#CCFFFF"/>
<rect x="6185.8" y="12812.2" width="624.783" height="624.783" transform="rotate(-135 6185.8 12812.2)" fill="white"/>
<rect x="4418.64" y="11045" width="624.783" height="624.783" transform="rotate(-135 4418.64 11045)" fill="#33FFCC"/>
<rect x="4860.43" y="11486.8" width="624.783" height="624.783" transform="rotate(-135 4860.43 11486.8)" fill="#66FFFF"/>
<rect x="1767.91" y="8394.28" width="624.783" height="624.783" transform="rotate(-135 1767.91 8394.28)" fill="black"/>
<rect x="2209.7" y="8836.07" width="624.783" height="624.783" transform="rotate(-135 2209.7 8836.07)" fill="#003300"/>
<rect x="10163.2" y="9293.27" width="1229.56" height="1229.56" transform="rotate(45 10163.2 9293.27)" stroke="white" stroke-width="20"/>
<rect x="10163.2" y="9720.92" width="624.783" height="624.783" transform="rotate(-45 10163.2 9720.92)" fill="#CC0066"/>
<rect x="9735.53" y="10162.7" width="604.783" height="604.783" transform="rotate(-45 9735.53 10162.7)" fill="#FF0099" stroke="white" stroke-width="20"/>
<rect x="11046.8" y="8837.34" width="624.783" height="624.783" transform="rotate(-45 11046.8 8837.34)" fill="#660000"/>
<rect x="10605" y="9279.13" width="624.783" height="624.783" transform="rotate(-45 10605 9279.13)" fill="#990033"/>
<rect x="8410.17" y="11488.1" width="604.783" height="604.783" transform="rotate(-45 8410.17 11488.1)" fill="#FF99FF" stroke="white" stroke-width="20"/>
<rect x="7954.23" y="11929.9" width="624.783" height="624.783" transform="rotate(-45 7954.23 11929.9)" fill="#FFCCFF"/>
<rect x="7512.45" y="12371.6" width="624.783" height="624.783" transform="rotate(-45 7512.45 12371.6)" fill="white"/>
<rect x="9279.6" y="10604.5" width="624.783" height="624.783" transform="rotate(-45 9279.6 10604.5)" fill="#FF33CC"/>
<rect x="8837.81" y="11046.3" width="624.783" height="624.783" transform="rotate(-45 8837.81 11046.3)" fill="#FF66FF"/>
<rect x="11930.3" y="7953.76" width="624.783" height="624.783" transform="rotate(-45 11930.3 7953.76)" fill="black"/>
<rect x="11488.5" y="8395.55" width="624.783" height="624.783" transform="rotate(-45 11488.5 8395.55)" fill="#330000"/>
<rect x="5745.3" y="9293.27" width="1229.56" height="1229.56" transform="rotate(45 5745.3 9293.27)" stroke="white" stroke-width="20"/>
<rect x="14581.1" y="9293.27" width="1229.56" height="1229.56" transform="rotate(45 14581.1 9293.27)" stroke="white" stroke-width="20"/>
<rect x="12813.9" y="9293.27" width="1229.56" height="1229.56" transform="rotate(45 12813.9 9293.27)" stroke="white" stroke-width="20"/>
<rect x="11488.5" y="8409.7" width="604.783" height="604.783" transform="rotate(45 11488.5 8409.7)" fill="#660000" stroke="white" stroke-width="20"/>
<rect x="10605" y="8395.55" width="624.783" height="624.783" transform="rotate(-45 10605 8395.55)" fill="#330000"/>
<rect x="10163.2" y="7953.77" width="624.783" height="624.783" transform="rotate(-45 10163.2 7953.77)" fill="black"/>
<rect x="4419.93" y="11046.3" width="624.783" height="624.783" transform="rotate(-45 4419.93 11046.3)" fill="#66FFFF"/>
<rect x="9279.59" y="10604.5" width="624.783" height="624.783" transform="rotate(45 9279.59 10604.5)" fill="#FF66FF"/>
<rect x="6628.87" y="8837.34" width="624.783" height="624.783" transform="rotate(-45 6628.87 8837.34)" fill="#000066"/>
<rect x="12386.3" y="10162.7" width="604.783" height="604.783" transform="rotate(-45 12386.3 10162.7)" fill="#FF9900" stroke="white" stroke-width="20"/>
<rect x="12813.9" y="10604.5" width="624.783" height="624.783" transform="rotate(-45 12813.9 10604.5)" fill="#FFCC33"/>
<rect x="13255.7" y="11046.3" width="624.783" height="624.783" transform="rotate(-45 13255.7 11046.3)" fill="#FFFF66"/>
<rect x="13697.5" y="11488.1" width="624.783" height="624.783" transform="rotate(-45 13697.5 11488.1)" fill="#FFFF99"/>
<rect x="14139.3" y="11929.9" width="624.783" height="624.783" transform="rotate(-45 14139.3 11929.9)" fill="#FFFFCC"/>
<rect x="11930.3" y="9720.92" width="624.783" height="624.783" transform="rotate(-45 11930.3 9720.92)" fill="#CC6600"/>
<rect x="11488.5" y="9279.13" width="624.783" height="624.783" transform="rotate(-45 11488.5 9279.13)" fill="#993300"/>
<rect x="9721.38" y="11046.3" width="624.783" height="624.783" transform="rotate(45 9721.38 11046.3)" fill="#FF99FF"/>
<rect x="5745.29" y="9735.06" width="604.783" height="604.783" transform="rotate(45 5745.29 9735.06)" fill="#0099FF" stroke="white" stroke-width="20"/>
<rect x="6187.08" y="9279.13" width="624.783" height="624.783" transform="rotate(45 6187.08 9279.13)" fill="#0066CC"/>
<rect x="6628.87" y="8837.34" width="624.783" height="624.783" transform="rotate(45 6628.87 8837.34)" fill="#003399"/>
<rect x="7070.66" y="8395.55" width="624.783" height="624.783" transform="rotate(45 7070.66 8395.55)" fill="#000066"/>
<rect x="7512.45" y="7953.77" width="624.783" height="624.783" transform="rotate(45 7512.45 7953.77)" fill="#000033"/>
<rect x="7954.24" y="7511.98" width="624.783" height="624.783" transform="rotate(45 7954.24 7511.98)" fill="black"/>
<rect x="5303.51" y="10162.7" width="624.783" height="624.783" transform="rotate(45 5303.51 10162.7)" fill="#33CCFF"/>
<rect x="4419.93" y="11060.4" width="604.783" height="604.783" transform="rotate(45 4419.93 11060.4)" fill="#99FFFF" stroke="white" stroke-width="20"/>
<rect x="3978.14" y="11488.1" width="624.783" height="624.783" transform="rotate(45 3978.14 11488.1)" fill="#CCFFFF"/>
<rect x="3536.35" y="11929.9" width="624.783" height="624.783" transform="rotate(45 3536.35 11929.9)" fill="white"/>
<rect x="13255.7" y="11046.3" width="624.783" height="624.783" transform="rotate(45 13255.7 11046.3)" fill="#FFFF99"/>
<rect x="16790" y="7511.98" width="624.783" height="624.783" transform="rotate(45 16790 7511.98)" fill="black"/>
<rect x="14581.1" y="9735.06" width="604.783" height="604.783" transform="rotate(45 14581.1 9735.06)" fill="#99FF00" stroke="white" stroke-width="20"/>
<rect x="14139.3" y="10162.7" width="624.783" height="624.783" transform="rotate(45 14139.3 10162.7)" fill="#CCFF33"/>
<rect x="12813.9" y="11488.1" width="624.783" height="624.783" transform="rotate(45 12813.9 11488.1)" fill="#FFFFCC"/>
<rect x="12372.1" y="11929.9" width="624.783" height="624.783" transform="rotate(45 12372.1 11929.9)" fill="white"/>
<rect x="15022.8" y="11929.9" width="624.783" height="624.783" transform="rotate(45 15022.8 11929.9)" fill="white"/>
<rect x="15022.8" y="9279.13" width="624.783" height="624.783" transform="rotate(45 15022.8 9279.13)" fill="#66CC00"/>
<rect x="15464.6" y="8837.34" width="624.783" height="624.783" transform="rotate(45 15464.6 8837.34)" fill="#339900"/>
<rect x="15906.4" y="8395.55" width="624.783" height="624.783" transform="rotate(45 15906.4 8395.55)" fill="#006600"/>
<rect x="16348.2" y="7953.77" width="624.783" height="624.783" transform="rotate(45 16348.2 7953.77)" fill="#003300"/>
<rect x="7968.37" y="10162.7" width="604.783" height="604.783" transform="rotate(-45 7968.37 10162.7)" fill="#9900FF" stroke="white" stroke-width="20"/>
<rect x="7526.59" y="10162.7" width="1229.56" height="1229.56" transform="rotate(-45 7526.59 10162.7)" stroke="white" stroke-width="20"/>
<rect x="8396.02" y="10604.5" width="624.783" height="624.783" transform="rotate(-45 8396.02 10604.5)" fill="#CC33FF"/>
<rect x="9293.73" y="11488.1" width="604.783" height="604.783" transform="rotate(-45 9293.73 11488.1)" fill="#FF99FF" stroke="white" stroke-width="20"/>
<rect x="9721.38" y="11929.9" width="624.783" height="624.783" transform="rotate(-45 9721.38 11929.9)" fill="#FFCCFF"/>
<rect x="10163.2" y="12371.7" width="624.783" height="624.783" transform="rotate(-45 10163.2 12371.7)" fill="white"/>
<rect x="7512.44" y="9720.93" width="624.783" height="624.783" transform="rotate(-45 7512.44 9720.93)" fill="#6600CC"/>
<rect x="7070.65" y="9279.14" width="624.783" height="624.783" transform="rotate(-45 7070.65 9279.14)" fill="#330099"/>
<rect x="6643.01" y="8837.35" width="604.783" height="604.783" transform="rotate(-45 6643.01 8837.35)" fill="#000066" stroke="white" stroke-width="20"/>
<rect x="6187.07" y="8395.56" width="624.783" height="624.783" transform="rotate(-45 6187.07 8395.56)" fill="#000033"/>
<rect x="5745.29" y="7953.77" width="624.783" height="624.783" transform="rotate(-45 5745.29 7953.77)" fill="black"/>
<path d="M3718.25 12553.6C3697.43 12574.4 3697.43 12608.1 3718.25 12629C3739.08 12649.8 3772.85 12649.8 3793.68 12629C3814.51 12608.1 3814.51 12574.4 3793.68 12553.6C3772.85 12532.7 3739.08 12532.7 3718.25 12553.6ZM5927.19 12553.6C5906.36 12574.4 5906.36 12608.2 5927.19 12629C5948.02 12649.8 5981.79 12649.8 6002.61 12629C6023.44 12608.2 6023.44 12574.4 6002.61 12553.6C5981.79 12532.7 5948.02 12532.7 5927.19 12553.6ZM3755.97 12601.3L5964.9 12601.3L5964.9 12581.3L3755.97 12581.3L3755.97 12601.3Z" fill="white"/>
<path d="M4161.33 12113C4140.5 12133.9 4140.5 12167.6 4161.33 12188.5C4182.15 12209.3 4215.92 12209.3 4236.75 12188.5C4257.58 12167.6 4257.58 12133.9 4236.75 12113C4215.92 12092.2 4182.15 12092.2 4161.33 12113ZM5485.4 12111.8C5464.57 12132.6 5464.57 12166.4 5485.4 12187.2C5506.23 12208 5540 12208 5560.83 12187.2C5581.65 12166.4 5581.65 12132.6 5560.83 12111.8C5540 12090.9 5506.23 12090.9 5485.4 12111.8ZM4199.05 12160.8L5523.12 12159.5L5523.1 12139.5L4199.03 12140.8L4199.05 12160.8Z" fill="white"/>
<path d="M4601.83 11670C4581 11690.8 4581 11724.6 4601.83 11745.4C4622.66 11766.2 4656.43 11766.2 4677.26 11745.4C4698.08 11724.6 4698.08 11690.8 4677.26 11670C4656.43 11649.1 4622.66 11649.1 4601.83 11670ZM5043.61 11670C5022.79 11690.8 5022.79 11724.6 5043.61 11745.4C5064.44 11766.2 5098.21 11766.2 5119.04 11745.4C5139.87 11724.6 5139.87 11690.8 5119.04 11670C5098.21 11649.2 5064.44 11649.2 5043.61 11670ZM4639.54 11717.7L5081.33 11717.7L5081.33 11697.7L4639.54 11697.7L4639.54 11717.7Z" fill="white"/>
<path d="M6370.26 12554.8C6349.43 12575.7 6349.43 12609.4 6370.26 12630.3C6391.09 12651.1 6424.86 12651.1 6445.68 12630.3C6466.51 12609.4 6466.51 12575.7 6445.68 12554.8C6424.86 12534 6391.09 12534 6370.26 12554.8ZM7695.63 12554.8C7674.8 12575.7 7674.8 12609.4 7695.63 12630.3C7716.46 12651.1 7750.23 12651.1 7771.05 12630.3C7791.88 12609.4 7791.88 12575.7 7771.05 12554.8C7750.23 12534 7716.46 12534 7695.63 12554.8ZM6407.97 12602.5L7733.34 12602.5L7733.34 12582.5L6407.97 12582.5L6407.97 12602.5Z" fill="white"/>
<path d="M6370.26 7695.17C6349.43 7716 6349.43 7749.77 6370.26 7770.6C6391.09 7791.42 6424.86 7791.42 6445.68 7770.6C6466.51 7749.77 6466.51 7716 6445.68 7695.17C6424.86 7674.34 6391.09 7674.34 6370.26 7695.17ZM7695.63 7695.16C7674.8 7715.99 7674.8 7749.76 7695.63 7770.59C7716.46 7791.42 7750.23 7791.42 7771.05 7770.59C7791.88 7749.76 7791.88 7715.99 7771.05 7695.16C7750.23 7674.34 7716.46 7674.34 7695.63 7695.16ZM6407.97 7742.88L7733.34 7742.88L7733.34 7722.88L6407.97 7722.88L6407.97 7742.88Z" fill="white"/>
<path d="M10786.9 7693.87C10766 7714.7 10766 7748.47 10786.9 7769.3C10807.7 7790.12 10841.5 7790.12 10862.3 7769.3C10883.1 7748.47 10883.1 7714.7 10862.3 7693.87C10841.5 7673.04 10807.7 7673.04 10786.9 7693.87ZM12112.2 7693.86C12091.4 7714.69 12091.4 7748.46 12112.2 7769.29C12133.1 7790.12 12166.8 7790.12 12187.7 7769.29C12208.5 7748.46 12208.5 7714.69 12187.7 7693.86C12166.8 7673.04 12133.1 7673.04 12112.2 7693.86ZM10824.6 7741.58L12150 7741.58L12150 7721.58L10824.6 7721.58L10824.6 7741.58Z" fill="white"/>
<path d="M10788.1 12554.8C10767.3 12575.7 10767.3 12609.4 10788.1 12630.3C10809 12651.1 10842.7 12651.1 10863.6 12630.3C10884.4 12609.4 10884.4 12575.7 10863.6 12554.8C10842.7 12534 10809 12534 10788.1 12554.8ZM12113.5 12554.8C12092.7 12575.6 12092.7 12609.4 12113.5 12630.2C12134.3 12651.1 12168.1 12651.1 12188.9 12630.2C12209.8 12609.4 12209.8 12575.6 12188.9 12554.8C12168.1 12534 12134.3 12534 12113.5 12554.8ZM10825.9 12602.5L12151.2 12602.5L12151.2 12582.5L10825.9 12582.5L10825.9 12602.5Z" fill="white"/>
<path d="M8137.41 12554.8C8116.58 12575.7 8116.58 12609.4 8137.41 12630.3C8158.24 12651.1 8192.01 12651.1 8212.84 12630.3C8233.66 12609.4 8233.66 12575.7 8212.84 12554.8C8192.01 12534 8158.24 12534 8137.41 12554.8ZM10346.3 12554.8C10325.5 12575.7 10325.5 12609.4 10346.3 12630.3C10367.2 12651.1 10400.9 12651.1 10421.8 12630.3C10442.6 12609.4 10442.6 12575.7 10421.8 12554.8C10400.9 12534 10367.2 12534 10346.3 12554.8ZM8175.12 12602.5L10384.1 12602.5L10384.1 12582.5L8175.12 12582.5L8175.12 12602.5Z" fill="white"/>
<path d="M8137.42 7695.16C8116.6 7715.98 8116.6 7749.75 8137.42 7770.58C8158.25 7791.41 8192.02 7791.41 8212.85 7770.58C8233.68 7749.75 8233.68 7715.98 8212.85 7695.16C8192.02 7674.33 8158.25 7674.33 8137.42 7695.16ZM10346.4 7695.16C10325.5 7715.99 10325.5 7749.76 10346.4 7770.59C10367.2 7791.41 10401 7791.41 10421.8 7770.59C10442.6 7749.76 10442.6 7715.99 10421.8 7695.16C10401 7674.33 10367.2 7674.33 10346.4 7695.16ZM8175.14 7742.87L10384.1 7742.87L10384.1 7722.87L8175.14 7722.87L8175.14 7742.87Z" fill="white"/>
<path d="M12555.3 12554.8C12534.5 12575.7 12534.5 12609.4 12555.3 12630.3C12576.1 12651.1 12609.9 12651.1 12630.7 12630.3C12651.6 12609.4 12651.6 12575.7 12630.7 12554.8C12609.9 12534 12576.1 12534 12555.3 12554.8ZM14764.2 12554.8C14743.4 12575.7 14743.4 12609.4 14764.2 12630.3C14785.1 12651.1 14818.8 12651.1 14839.7 12630.3C14860.5 12609.4 14860.5 12575.7 14839.7 12554.8C14818.8 12534 14785.1 12534 14764.2 12554.8ZM12593 12602.5L14801.9 12602.5L14801.9 12582.5L12593 12582.5L12593 12602.5Z" fill="white"/>
<rect x="10603.7" y="8836.07" width="624.783" height="624.783" transform="rotate(-45 10603.7 8836.07)" fill="#990000"/>
<rect x="10163.2" y="8837.34" width="624.783" height="624.783" transform="rotate(-45 10163.2 8837.34)" fill="#CC0000"/>
<rect x="9735.53" y="8837.35" width="604.783" height="604.783" transform="rotate(-45 9735.53 8837.35)" fill="#FF0000" stroke="white" stroke-width="20"/>
<rect x="6187.09" y="8837.34" width="624.783" height="624.783" transform="rotate(-45 6187.09 8837.34)" fill="#000099"/>
<rect x="5745.3" y="8837.34" width="624.783" height="624.783" transform="rotate(-45 5745.3 8837.34)" fill="#0000CC"/>
<rect x="5303.5" y="8837.35" width="624.783" height="624.783" transform="rotate(-45 5303.5 8837.35)" fill="#0000FF"/>
<path d="M15906.4 10151.4C15900.9 10151.4 15896.4 10155.9 15896.4 10161.4C15896.4 10167 15900.9 10171.4 15906.4 10171.4L15906.4 10151.4ZM17040.5 10168.5C17044.4 10164.6 17044.4 10158.3 17040.5 10154.4L16976.8 10090.7C16972.9 10086.8 16966.6 10086.8 16962.7 10090.7C16958.8 10094.6 16958.8 10101 16962.7 10104.9L17019.2 10161.4L16962.7 10218C16958.8 10221.9 16958.8 10228.2 16962.7 10232.2C16966.6 10236.1 16972.9 10236.1 16976.8 10232.2L17040.5 10168.5ZM15906.4 10171.4L17033.4 10171.4L17033.4 10151.4L15906.4 10151.4L15906.4 10171.4Z" fill="white"/>
<path d="M1759.55 10154.3C1755.64 10158.2 1755.63 10164.6 1759.53 10168.5L1823.07 10232.2C1826.97 10236.1 1833.31 10236.1 1837.22 10232.2C1841.13 10228.3 1841.14 10222 1837.24 10218.1L1780.75 10161.4L1837.4 10104.9C1841.31 10101 1841.32 10094.7 1837.42 10090.8C1833.53 10086.9 1827.19 10086.9 1823.28 10090.8L1759.55 10154.3ZM2651.48 10172.7C2657 10172.7 2661.48 10168.3 2661.49 10162.7C2661.5 10157.2 2657.03 10152.7 2651.5 10152.7L2651.48 10172.7ZM1766.6 10171.4L2651.48 10172.7L2651.5 10152.7L1766.62 10151.4L1766.6 10171.4Z" fill="white"/>
<rect x="3976.85" y="10603.2" width="624.783" height="624.783" transform="rotate(-135 3976.85 10603.2)" fill="#00FF99"/>
<rect x="3978.15" y="9293.28" width="1229.56" height="1229.56" transform="rotate(45 3978.15 9293.28)" stroke="white" stroke-width="20"/>
<rect x="2651.49" y="9277.86" width="624.783" height="624.783" transform="rotate(-135 2651.49 9277.86)" fill="#006600"/>
<rect x="3093.28" y="9719.64" width="624.783" height="624.783" transform="rotate(-135 3093.28 9719.64)" fill="#009933"/>
<rect x="5302.22" y="11914.4" width="604.783" height="604.783" transform="rotate(-135 5302.22 11914.4)" fill="#99FFFF" stroke="white" stroke-width="20"/>
<rect x="5744.01" y="12370.4" width="624.783" height="624.783" transform="rotate(-135 5744.01 12370.4)" fill="#CCFFFF"/>
<rect x="6185.8" y="12812.2" width="624.783" height="624.783" transform="rotate(-135 6185.8 12812.2)" fill="white"/>
<rect x="4418.64" y="11045" width="624.783" height="624.783" transform="rotate(-135 4418.64 11045)" fill="#33FFCC"/>
<rect x="4860.43" y="11486.8" width="624.783" height="624.783" transform="rotate(-135 4860.43 11486.8)" fill="#66FFFF"/>
<rect x="1767.91" y="8394.28" width="624.783" height="624.783" transform="rotate(-135 1767.91 8394.28)" fill="black"/>
<rect x="2209.7" y="8836.07" width="624.783" height="624.783" transform="rotate(-135 2209.7 8836.07)" fill="#003300"/>
<rect x="10163.2" y="9293.27" width="1229.56" height="1229.56" transform="rotate(45 10163.2 9293.27)" stroke="white" stroke-width="20"/>
<rect x="10163.2" y="9720.92" width="624.783" height="624.783" transform="rotate(-45 10163.2 9720.92)" fill="#CC0066"/>
<rect x="9735.53" y="10162.7" width="604.783" height="604.783" transform="rotate(-45 9735.53 10162.7)" fill="#FF0099" stroke="white" stroke-width="20"/>
<rect x="11046.8" y="8837.34" width="624.783" height="624.783" transform="rotate(-45 11046.8 8837.34)" fill="#660000"/>
<rect x="10605" y="9279.13" width="624.783" height="624.783" transform="rotate(-45 10605 9279.13)" fill="#990033"/>
<rect x="8410.17" y="11488.1" width="604.783" height="604.783" transform="rotate(-45 8410.17 11488.1)" fill="#FF99FF" stroke="white" stroke-width="20"/>
<rect x="7954.23" y="11929.9" width="624.783" height="624.783" transform="rotate(-45 7954.23 11929.9)" fill="#FFCCFF"/>
<rect x="7512.45" y="12371.6" width="624.783" height="624.783" transform="rotate(-45 7512.45 12371.6)" fill="white"/>
<rect x="9279.6" y="10604.5" width="624.783" height="624.783" transform="rotate(-45 9279.6 10604.5)" fill="#FF33CC"/>
<rect x="8837.81" y="11046.3" width="624.783" height="624.783" transform="rotate(-45 8837.81 11046.3)" fill="#FF66FF"/>
<rect x="11930.3" y="7953.76" width="624.783" height="624.783" transform="rotate(-45 11930.3 7953.76)" fill="black"/>
<rect x="11488.5" y="8395.55" width="624.783" height="624.783" transform="rotate(-45 11488.5 8395.55)" fill="#330000"/>
<rect x="5745.3" y="9293.27" width="1229.56" height="1229.56" transform="rotate(45 5745.3 9293.27)" stroke="white" stroke-width="20"/>
<rect x="14581.1" y="9293.27" width="1229.56" height="1229.56" transform="rotate(45 14581.1 9293.27)" stroke="white" stroke-width="20"/>
<rect x="12813.9" y="9293.27" width="1229.56" height="1229.56" transform="rotate(45 12813.9 9293.27)" stroke="white" stroke-width="20"/>
<rect x="11488.5" y="8409.7" width="604.783" height="604.783" transform="rotate(45 11488.5 8409.7)" fill="#660000" stroke="white" stroke-width="20"/>
<rect x="10605" y="8395.55" width="624.783" height="624.783" transform="rotate(-45 10605 8395.55)" fill="#330000"/>
<rect x="10163.2" y="7953.77" width="624.783" height="624.783" transform="rotate(-45 10163.2 7953.77)" fill="black"/>
<rect x="4419.93" y="11046.3" width="624.783" height="624.783" transform="rotate(-45 4419.93 11046.3)" fill="#66FFFF"/>
<rect x="9279.59" y="10604.5" width="624.783" height="624.783" transform="rotate(45 9279.59 10604.5)" fill="#FF66FF"/>
<rect x="6628.87" y="8837.34" width="624.783" height="624.783" transform="rotate(-45 6628.87 8837.34)" fill="#000066"/>
<rect x="12386.3" y="10162.7" width="604.783" height="604.783" transform="rotate(-45 12386.3 10162.7)" fill="#FF9900" stroke="white" stroke-width="20"/>
<rect x="12813.9" y="10604.5" width="624.783" height="624.783" transform="rotate(-45 12813.9 10604.5)" fill="#FFCC33"/>
<rect x="13255.7" y="11046.3" width="624.783" height="624.783" transform="rotate(-45 13255.7 11046.3)" fill="#FFFF66"/>
<rect x="13711.6" y="11488.1" width="604.783" height="604.783" transform="rotate(-45 13711.6 11488.1)" fill="#FFFF99" stroke="white" stroke-width="20"/>
<rect x="14139.3" y="11929.9" width="624.783" height="624.783" transform="rotate(-45 14139.3 11929.9)" fill="#FFFFCC"/>
<rect x="11930.3" y="9720.92" width="624.783" height="624.783" transform="rotate(-45 11930.3 9720.92)" fill="#CC6600"/>
<rect x="11488.5" y="9279.13" width="624.783" height="624.783" transform="rotate(-45 11488.5 9279.13)" fill="#993300"/>
<rect x="9721.38" y="11046.3" width="624.783" height="624.783" transform="rotate(45 9721.38 11046.3)" fill="#FF99FF"/>
<rect x="5745.29" y="9735.06" width="604.783" height="604.783" transform="rotate(45 5745.29 9735.06)" fill="#0099FF" stroke="white" stroke-width="20"/>
<rect x="6187.08" y="9279.13" width="624.783" height="624.783" transform="rotate(45 6187.08 9279.13)" fill="#0066CC"/>
<rect x="6628.87" y="8837.34" width="624.783" height="624.783" transform="rotate(45 6628.87 8837.34)" fill="#003399"/>
<rect x="7070.66" y="8395.55" width="624.783" height="624.783" transform="rotate(45 7070.66 8395.55)" fill="#000066"/>
<rect x="7512.45" y="7953.77" width="624.783" height="624.783" transform="rotate(45 7512.45 7953.77)" fill="#000033"/>
<rect x="7954.24" y="7511.98" width="624.783" height="624.783" transform="rotate(45 7954.24 7511.98)" fill="black"/>
<rect x="5303.51" y="10162.7" width="624.783" height="624.783" transform="rotate(45 5303.51 10162.7)" fill="#33CCFF"/>
<rect x="4419.93" y="11060.4" width="604.783" height="604.783" transform="rotate(45 4419.93 11060.4)" fill="#99FFFF" stroke="white" stroke-width="20"/>
<rect x="3978.14" y="11488.1" width="624.783" height="624.783" transform="rotate(45 3978.14 11488.1)" fill="#CCFFFF"/>
<rect x="3536.35" y="11929.9" width="624.783" height="624.783" transform="rotate(45 3536.35 11929.9)" fill="white"/>
<rect x="13255.7" y="11060.4" width="604.783" height="604.783" transform="rotate(45 13255.7 11060.4)" fill="#FFFF99" stroke="white" stroke-width="20"/>
<rect x="16790" y="7511.98" width="624.783" height="624.783" transform="rotate(45 16790 7511.98)" fill="black"/>
<rect x="14581.1" y="9735.06" width="604.783" height="604.783" transform="rotate(45 14581.1 9735.06)" fill="#99FF00" stroke="white" stroke-width="20"/>
<rect x="14139.3" y="10162.7" width="624.783" height="624.783" transform="rotate(45 14139.3 10162.7)" fill="#CCFF33"/>
<rect x="12813.9" y="11488.1" width="624.783" height="624.783" transform="rotate(45 12813.9 11488.1)" fill="#FFFFCC"/>
<rect x="12372.1" y="11929.9" width="624.783" height="624.783" transform="rotate(45 12372.1 11929.9)" fill="white"/>
<rect x="15022.8" y="11929.9" width="624.783" height="624.783" transform="rotate(45 15022.8 11929.9)" fill="white"/>
<rect x="15022.8" y="9279.13" width="624.783" height="624.783" transform="rotate(45 15022.8 9279.13)" fill="#66CC00"/>
<rect x="15464.6" y="8837.34" width="624.783" height="624.783" transform="rotate(45 15464.6 8837.34)" fill="#339900"/>
<rect x="15906.4" y="8395.55" width="624.783" height="624.783" transform="rotate(45 15906.4 8395.55)" fill="#006600"/>
<rect x="16348.2" y="7953.77" width="624.783" height="624.783" transform="rotate(45 16348.2 7953.77)" fill="#003300"/>
<rect x="7968.37" y="10162.7" width="604.783" height="604.783" transform="rotate(-45 7968.37 10162.7)" fill="#9900FF" stroke="white" stroke-width="20"/>
<rect x="7526.59" y="10162.7" width="1229.56" height="1229.56" transform="rotate(-45 7526.59 10162.7)" stroke="white" stroke-width="20"/>
<rect x="8396.02" y="10604.5" width="624.783" height="624.783" transform="rotate(-45 8396.02 10604.5)" fill="#CC33FF"/>
<rect x="9293.73" y="11488.1" width="604.783" height="604.783" transform="rotate(-45 9293.73 11488.1)" fill="#FF99FF" stroke="white" stroke-width="20"/>
<rect x="9721.38" y="11929.9" width="624.783" height="624.783" transform="rotate(-45 9721.38 11929.9)" fill="#FFCCFF"/>
<rect x="10163.2" y="12371.7" width="624.783" height="624.783" transform="rotate(-45 10163.2 12371.7)" fill="white"/>
<rect x="7512.44" y="9720.93" width="624.783" height="624.783" transform="rotate(-45 7512.44 9720.93)" fill="#6600CC"/>
<rect x="7070.65" y="9279.14" width="624.783" height="624.783" transform="rotate(-45 7070.65 9279.14)" fill="#330099"/>
<rect x="6643.01" y="8837.35" width="604.783" height="604.783" transform="rotate(-45 6643.01 8837.35)" fill="#000066" stroke="white" stroke-width="20"/>
<rect x="6187.07" y="8395.56" width="624.783" height="624.783" transform="rotate(-45 6187.07 8395.56)" fill="#000033"/>
<rect x="5745.29" y="7953.77" width="624.783" height="624.783" transform="rotate(-45 5745.29 7953.77)" fill="black"/>
<path d="M3718.25 12553.6C3697.43 12574.4 3697.43 12608.1 3718.25 12629C3739.08 12649.8 3772.85 12649.8 3793.68 12629C3814.51 12608.1 3814.51 12574.4 3793.68 12553.6C3772.85 12532.7 3739.08 12532.7 3718.25 12553.6ZM5927.19 12553.6C5906.36 12574.4 5906.36 12608.2 5927.19 12629C5948.02 12649.8 5981.79 12649.8 6002.61 12629C6023.44 12608.2 6023.44 12574.4 6002.61 12553.6C5981.79 12532.7 5948.02 12532.7 5927.19 12553.6ZM3755.97 12601.3L5964.9 12601.3L5964.9 12581.3L3755.97 12581.3L3755.97 12601.3Z" fill="white"/>
<path d="M4161.33 12113C4140.5 12133.9 4140.5 12167.6 4161.33 12188.5C4182.15 12209.3 4215.92 12209.3 4236.75 12188.5C4257.58 12167.6 4257.58 12133.9 4236.75 12113C4215.92 12092.2 4182.15 12092.2 4161.33 12113ZM5485.4 12111.8C5464.57 12132.6 5464.57 12166.4 5485.4 12187.2C5506.23 12208 5540 12208 5560.83 12187.2C5581.65 12166.4 5581.65 12132.6 5560.83 12111.8C5540 12090.9 5506.23 12090.9 5485.4 12111.8ZM4199.05 12160.8L5523.12 12159.5L5523.1 12139.5L4199.03 12140.8L4199.05 12160.8Z" fill="white"/>
<path d="M4601.83 11670C4581 11690.8 4581 11724.6 4601.83 11745.4C4622.66 11766.2 4656.43 11766.2 4677.26 11745.4C4698.08 11724.6 4698.08 11690.8 4677.26 11670C4656.43 11649.1 4622.66 11649.1 4601.83 11670ZM5043.61 11670C5022.79 11690.8 5022.79 11724.6 5043.61 11745.4C5064.44 11766.2 5098.21 11766.2 5119.04 11745.4C5139.87 11724.6 5139.87 11690.8 5119.04 11670C5098.21 11649.2 5064.44 11649.2 5043.61 11670ZM4639.54 11717.7L5081.33 11717.7L5081.33 11697.7L4639.54 11697.7L4639.54 11717.7Z" fill="white"/>
<path d="M6370.26 12554.8C6349.43 12575.7 6349.43 12609.4 6370.26 12630.3C6391.09 12651.1 6424.86 12651.1 6445.68 12630.3C6466.51 12609.4 6466.51 12575.7 6445.68 12554.8C6424.86 12534 6391.09 12534 6370.26 12554.8ZM7695.63 12554.8C7674.8 12575.7 7674.8 12609.4 7695.63 12630.3C7716.46 12651.1 7750.23 12651.1 7771.05 12630.3C7791.88 12609.4 7791.88 12575.7 7771.05 12554.8C7750.23 12534 7716.46 12534 7695.63 12554.8ZM6407.97 12602.5L7733.34 12602.5L7733.34 12582.5L6407.97 12582.5L6407.97 12602.5Z" fill="white"/>
<path d="M6370.26 7695.17C6349.43 7716 6349.43 7749.77 6370.26 7770.6C6391.09 7791.42 6424.86 7791.42 6445.68 7770.6C6466.51 7749.77 6466.51 7716 6445.68 7695.17C6424.86 7674.34 6391.09 7674.34 6370.26 7695.17ZM7695.63 7695.16C7674.8 7715.99 7674.8 7749.76 7695.63 7770.59C7716.46 7791.42 7750.23 7791.42 7771.05 7770.59C7791.88 7749.76 7791.88 7715.99 7771.05 7695.16C7750.23 7674.34 7716.46 7674.34 7695.63 7695.16ZM6407.97 7742.88L7733.34 7742.88L7733.34 7722.88L6407.97 7722.88L6407.97 7742.88Z" fill="white"/>
<path d="M10786.9 7693.87C10766 7714.7 10766 7748.47 10786.9 7769.3C10807.7 7790.12 10841.5 7790.12 10862.3 7769.3C10883.1 7748.47 10883.1 7714.7 10862.3 7693.87C10841.5 7673.04 10807.7 7673.04 10786.9 7693.87ZM12112.2 7693.86C12091.4 7714.69 12091.4 7748.46 12112.2 7769.29C12133.1 7790.12 12166.8 7790.12 12187.7 7769.29C12208.5 7748.46 12208.5 7714.69 12187.7 7693.86C12166.8 7673.04 12133.1 7673.04 12112.2 7693.86ZM10824.6 7741.58L12150 7741.58L12150 7721.58L10824.6 7721.58L10824.6 7741.58Z" fill="white"/>
<path d="M10788.1 12554.8C10767.3 12575.7 10767.3 12609.4 10788.1 12630.3C10809 12651.1 10842.7 12651.1 10863.6 12630.3C10884.4 12609.4 10884.4 12575.7 10863.6 12554.8C10842.7 12534 10809 12534 10788.1 12554.8ZM12113.5 12554.8C12092.7 12575.6 12092.7 12609.4 12113.5 12630.2C12134.3 12651.1 12168.1 12651.1 12188.9 12630.2C12209.8 12609.4 12209.8 12575.6 12188.9 12554.8C12168.1 12534 12134.3 12534 12113.5 12554.8ZM10825.9 12602.5L12151.2 12602.5L12151.2 12582.5L10825.9 12582.5L10825.9 12602.5Z" fill="white"/>
<path d="M8137.41 12554.8C8116.58 12575.7 8116.58 12609.4 8137.41 12630.3C8158.24 12651.1 8192.01 12651.1 8212.84 12630.3C8233.66 12609.4 8233.66 12575.7 8212.84 12554.8C8192.01 12534 8158.24 12534 8137.41 12554.8ZM10346.3 12554.8C10325.5 12575.7 10325.5 12609.4 10346.3 12630.3C10367.2 12651.1 10400.9 12651.1 10421.8 12630.3C10442.6 12609.4 10442.6 12575.7 10421.8 12554.8C10400.9 12534 10367.2 12534 10346.3 12554.8ZM8175.12 12602.5L10384.1 12602.5L10384.1 12582.5L8175.12 12582.5L8175.12 12602.5Z" fill="white"/>
<path d="M8137.42 7695.16C8116.6 7715.98 8116.6 7749.75 8137.42 7770.58C8158.25 7791.41 8192.02 7791.41 8212.85 7770.58C8233.68 7749.75 8233.68 7715.98 8212.85 7695.16C8192.02 7674.33 8158.25 7674.33 8137.42 7695.16ZM10346.4 7695.16C10325.5 7715.99 10325.5 7749.76 10346.4 7770.59C10367.2 7791.41 10401 7791.41 10421.8 7770.59C10442.6 7749.76 10442.6 7715.99 10421.8 7695.16C10401 7674.33 10367.2 7674.33 10346.4 7695.16ZM8175.14 7742.87L10384.1 7742.87L10384.1 7722.87L8175.14 7722.87L8175.14 7742.87Z" fill="white"/>
<path d="M12555.3 12554.8C12534.5 12575.7 12534.5 12609.4 12555.3 12630.3C12576.1 12651.1 12609.9 12651.1 12630.7 12630.3C12651.6 12609.4 12651.6 12575.7 12630.7 12554.8C12609.9 12534 12576.1 12534 12555.3 12554.8ZM14764.2 12554.8C14743.4 12575.7 14743.4 12609.4 14764.2 12630.3C14785.1 12651.1 14818.8 12651.1 14839.7 12630.3C14860.5 12609.4 14860.5 12575.7 14839.7 12554.8C14818.8 12534 14785.1 12534 14764.2 12554.8ZM12593 12602.5L14801.9 12602.5L14801.9 12582.5L12593 12582.5L12593 12602.5Z" fill="white"/>
<rect x="10603.7" y="8836.07" width="624.783" height="624.783" transform="rotate(-45 10603.7 8836.07)" fill="#990000"/>
<rect x="10163.2" y="8837.34" width="624.783" height="624.783" transform="rotate(-45 10163.2 8837.34)" fill="#CC0000"/>
<rect x="9735.53" y="8837.35" width="604.783" height="604.783" transform="rotate(-45 9735.53 8837.35)" fill="#FF0000" stroke="white" stroke-width="20"/>
<rect x="6187.09" y="8837.34" width="624.783" height="624.783" transform="rotate(-45 6187.09 8837.34)" fill="#000099"/>
<rect x="5745.3" y="8837.34" width="624.783" height="624.783" transform="rotate(-45 5745.3 8837.34)" fill="#0000CC"/>
<rect x="5317.64" y="8837.35" width="604.783" height="604.783" transform="rotate(-45 5317.64 8837.35)" fill="#0000FF" stroke="white" stroke-width="20"/>
<rect x="3535.07" y="7510.69" width="624.783" height="624.783" transform="rotate(45 3535.07 7510.69)" fill="black"/>
<rect x="3093.28" y="7952.48" width="624.783" height="624.783" transform="rotate(45 3093.28 7952.48)" fill="#003300"/>
<rect x="2651.5" y="9263.71" width="604.783" height="604.783" transform="rotate(-135 2651.5 9263.71)" fill="#006600" stroke="white" stroke-width="20"/>
<path d="M2392.9 8135.66C2372.07 8156.48 2372.07 8190.25 2392.9 8211.08C2413.72 8231.91 2447.49 8231.91 2468.32 8211.08C2489.15 8190.25 2489.15 8156.48 2468.32 8135.66C2447.49 8114.83 2413.72 8114.83 2392.9 8135.66ZM2834.68 8135.66C2813.85 8156.49 2813.85 8190.26 2834.68 8211.09C2855.51 8231.92 2889.27 8231.92 2910.1 8211.09C2930.93 8190.26 2930.93 8156.49 2910.1 8135.66C2889.27 8114.83 2855.51 8114.83 2834.68 8135.66ZM2430.61 8183.37L2872.39 8183.37L2872.39 8163.37L2430.61 8163.37L2430.61 8183.37Z" fill="white"/>
<rect x="15906.4" y="9264.99" width="604.783" height="604.783" transform="rotate(-135 15906.4 9264.99)" fill="#006600" stroke="white" stroke-width="20"/>
<rect x="15022.8" y="8395.55" width="624.783" height="624.783" transform="rotate(-135 15022.8 8395.55)" fill="black"/>
<rect x="15464.6" y="8837.34" width="624.783" height="624.783" transform="rotate(-135 15464.6 8837.34)" fill="#003300"/>
<rect x="15022.8" y="8837.34" width="624.783" height="624.783" transform="rotate(-45 15022.8 8837.34)" fill="#009900"/>
<rect x="14582.3" y="8838.62" width="624.783" height="624.783" transform="rotate(-45 14582.3 8838.62)" fill="#00CC00"/>
<rect x="14140.6" y="8838.62" width="624.783" height="624.783" transform="rotate(-45 14140.6 8838.62)" fill="#00FF00"/>
<path d="M8580.5 12114.3C8559.67 12135.1 8559.67 12168.9 8580.5 12189.7C8601.33 12210.6 8635.09 12210.6 8655.92 12189.7C8676.75 12168.9 8676.75 12135.1 8655.92 12114.3C8635.09 12093.5 8601.33 12093.5 8580.5 12114.3ZM9904.57 12113C9883.75 12133.9 9883.75 12167.6 9904.57 12188.5C9925.4 12209.3 9959.17 12209.3 9980 12188.5C10000.8 12167.6 10000.8 12133.9 9980 12113C9959.17 12092.2 9925.4 12092.2 9904.57 12113ZM8618.22 12162L9942.3 12160.8L9942.28 12140.8L8618.2 12142L8618.22 12162Z" fill="white"/>
<path d="M9021 11671.2C9000.18 11692.1 9000.18 11725.8 9021 11746.7C9041.83 11767.5 9075.6 11767.5 9096.43 11746.7C9117.26 11725.8 9117.26 11692.1 9096.43 11671.2C9075.6 11650.4 9041.83 11650.4 9021 11671.2ZM9462.79 11671.3C9441.96 11692.1 9441.96 11725.8 9462.79 11746.7C9483.61 11767.5 9517.38 11767.5 9538.21 11746.7C9559.04 11725.8 9559.04 11692.1 9538.21 11671.3C9517.38 11650.4 9483.61 11650.4 9462.79 11671.3ZM9058.72 11719L9500.5 11719L9500.5 11699L9058.72 11699L9058.72 11719Z" fill="white"/>
<path d="M12998.4 12114.3C12977.5 12135.1 12977.5 12168.9 12998.4 12189.7C13019.2 12210.6 13053 12210.6 13073.8 12189.7C13094.6 12168.9 13094.6 12135.1 13073.8 12114.3C13053 12093.5 13019.2 12093.5 12998.4 12114.3ZM14322.5 12113C14301.6 12133.9 14301.6 12167.6 14322.5 12188.5C14343.3 12209.3 14377 12209.3 14397.9 12188.5C14418.7 12167.6 14418.7 12133.9 14397.9 12113C14377 12092.2 14343.3 12092.2 14322.5 12113ZM13036.1 12162L14360.2 12160.8L14360.2 12140.8L13036.1 12142L13036.1 12162Z" fill="white"/>
<path d="M13438.9 11671.2C13418.1 11692.1 13418.1 11725.8 13438.9 11746.7C13459.7 11767.5 13493.5 11767.5 13514.3 11746.7C13535.1 11725.8 13535.1 11692.1 13514.3 11671.2C13493.5 11650.4 13459.7 11650.4 13438.9 11671.2ZM13880.7 11671.2C13859.8 11692.1 13859.8 11725.8 13880.7 11746.7C13901.5 11767.5 13935.3 11767.5 13956.1 11746.7C13976.9 11725.8 13976.9 11692.1 13956.1 11671.2C13935.3 11650.4 13901.5 11650.4 13880.7 11671.2ZM13476.6 11719L13918.4 11719L13918.4 11699L13476.6 11699L13476.6 11719Z" fill="white"/>
<path d="M6812.04 8136.96C6791.21 8157.78 6791.21 8191.55 6812.04 8212.38C6832.87 8233.21 6866.64 8233.21 6887.47 8212.38C6908.29 8191.55 6908.29 8157.78 6887.47 8136.96C6866.64 8116.13 6832.87 8116.13 6812.04 8136.96ZM7253.82 8136.96C7233 8157.79 7233 8191.56 7253.82 8212.39C7274.65 8233.22 7308.42 8233.22 7329.25 8212.39C7350.08 8191.56 7350.08 8157.79 7329.25 8136.96C7308.42 8116.14 7274.65 8116.14 7253.82 8136.96ZM6849.75 8184.67L7291.54 8184.68L7291.54 8164.68L6849.75 8164.67L6849.75 8184.67Z" fill="white"/>
<path d="M11228.7 8135.66C11207.8 8156.48 11207.8 8190.25 11228.7 8211.08C11249.5 8231.91 11283.3 8231.91 11304.1 8211.08C11324.9 8190.25 11324.9 8156.48 11304.1 8135.66C11283.3 8114.83 11249.5 8114.83 11228.7 8135.66ZM11670.4 8135.66C11649.6 8156.49 11649.6 8190.26 11670.4 8211.09C11691.3 8231.92 11725 8231.92 11745.9 8211.09C11766.7 8190.26 11766.7 8156.49 11745.9 8135.66C11725 8114.83 11691.3 8114.83 11670.4 8135.66ZM11266.4 8183.37L11708.2 8183.37L11708.2 8163.37L11266.4 8163.37L11266.4 8183.37Z" fill="white"/>
<path d="M15647.8 8136.94C15627 8157.77 15627 8191.54 15647.8 8212.37C15668.6 8233.19 15702.4 8233.19 15723.2 8212.37C15744.1 8191.54 15744.1 8157.77 15723.2 8136.94C15702.4 8116.11 15668.6 8116.11 15647.8 8136.94ZM16089.6 8136.95C16068.8 8157.78 16068.8 8191.54 16089.6 8212.37C16110.4 8233.2 16144.2 8233.2 16165 8212.37C16185.9 8191.54 16185.9 8157.78 16165 8136.95C16144.2 8116.12 16110.4 8116.12 16089.6 8136.95ZM15685.5 8184.65L16127.3 8184.66L16127.3 8164.66L15685.5 8164.65L15685.5 8184.65Z" fill="white"/>
<path d="M12555.3 7695.16C12534.5 7715.98 12534.5 7749.75 12555.3 7770.58C12576.1 7791.41 12609.9 7791.41 12630.7 7770.58C12651.6 7749.75 12651.6 7715.98 12630.7 7695.16C12609.9 7674.33 12576.1 7674.33 12555.3 7695.16ZM14764.2 7695.16C14743.4 7715.98 14743.4 7749.75 14764.2 7770.58C14785.1 7791.41 14818.8 7791.41 14839.7 7770.58C14860.5 7749.75 14860.5 7715.98 14839.7 7695.16C14818.8 7674.33 14785.1 7674.33 14764.2 7695.16ZM12593 7742.87L14802 7742.87L14802 7722.87L12593 7722.87L12593 7742.87Z" fill="white"/>
<path d="M15206 7695.16C15185.2 7715.99 15185.2 7749.75 15206 7770.58C15226.9 7791.41 15260.6 7791.41 15281.5 7770.58C15302.3 7749.75 15302.3 7715.99 15281.5 7695.16C15260.6 7674.33 15226.9 7674.33 15206 7695.16ZM16531.4 7695.16C16510.6 7715.99 16510.6 7749.75 16531.4 7770.58C16552.2 7791.41 16586 7791.41 16606.8 7770.58C16627.6 7749.75 16627.6 7715.99 16606.8 7695.16C16586 7674.33 16552.2 7674.33 16531.4 7695.16ZM15243.7 7742.87L16569.1 7742.87L16569.1 7722.87L15243.7 7722.87L15243.7 7742.87Z" fill="white"/>
<path d="M1951.11 7693.87C1930.28 7714.7 1930.28 7748.47 1951.11 7769.3C1971.93 7790.12 2005.7 7790.12 2026.53 7769.3C2047.36 7748.47 2047.36 7714.7 2026.53 7693.87C2005.7 7673.04 1971.93 7673.04 1951.11 7693.87ZM3276.47 7693.88C3255.64 7714.7 3255.64 7748.47 3276.47 7769.3C3297.29 7790.13 3331.06 7790.13 3351.89 7769.3C3372.72 7748.47 3372.72 7714.7 3351.89 7693.88C3331.06 7673.05 3297.29 7673.05 3276.47 7693.88ZM1988.82 7741.58L3314.18 7741.59L3314.18 7721.59L1988.82 7721.58L1988.82 7741.58Z" fill="white"/>
<path d="M3719.54 7695.15C3698.72 7715.98 3698.72 7749.75 3719.54 7770.57C3740.37 7791.4 3774.14 7791.4 3794.97 7770.57C3815.8 7749.75 3815.8 7715.98 3794.97 7695.15C3774.14 7674.32 3740.37 7674.32 3719.54 7695.15ZM5928.48 7695.16C5907.65 7715.99 5907.65 7749.75 5928.48 7770.58C5949.31 7791.41 5983.08 7791.41 6003.9 7770.58C6024.73 7749.75 6024.73 7715.99 6003.9 7695.16C5983.08 7674.33 5949.31 7674.33 5928.48 7695.16ZM3757.26 7742.86L5966.19 7742.87L5966.19 7722.87L3757.26 7722.86L3757.26 7742.86Z" fill="white"/>
</svg>
