<svg width="4374" height="1875" viewBox="0 0 4374 1875" fill="none" xmlns="http://www.w3.org/2000/svg">
<rect x="2499.24" y="624.995" width="624.783" height="1874.35" transform="rotate(-90 2499.24 624.995)" fill="#330000"/>
<rect x="0.109375" y="0.211914" width="1874.35" height="624.783" fill="#000033"/>
<rect x="1874.46" y="0.211914" width="624.783" height="624.783" fill="#003300"/>
<rect x="3436.52" y="1874.56" width="624.783" height="937.076" transform="rotate(-90 3436.52 1874.56)" fill="#FF99FF"/>
<rect x="0.00976562" y="1874.56" width="624.783" height="937.273" transform="rotate(-90 0.00976562 1874.56)" fill="#FF99FF"/>
<rect x="937.283" y="1249.78" width="1249.57" height="624.783" fill="#99FFFF"/>
<rect x="2186.95" y="1249.78" width="1249.57" height="624.783" fill="#FFFF99"/>
<rect x="3748.81" y="1249.78" width="624.783" height="624.783" transform="rotate(-90 3748.81 1249.78)" fill="#FF0099"/>
<rect x="1249.68" y="624.995" width="624.783" height="624.783" fill="#0099FF"/>
<rect x="0.0117188" y="1249.78" width="624.783" height="624.783" transform="rotate(-90 0.0117188 1249.78)" fill="#9900FF"/>
<rect x="624.895" y="1247.93" width="624.783" height="624.783" transform="rotate(-90 624.895 1247.93)" fill="#0000FF"/>
<rect x="3124.03" y="624.995" width="624.783" height="624.783" transform="rotate(90 3124.03 624.995)" fill="#FF9900"/>
<rect x="1874.46" y="624.995" width="624.783" height="624.783" fill="#99FF00"/>
<rect x="3124.03" y="1249.78" width="624.783" height="624.783" transform="rotate(-90 3124.03 1249.78)" fill="#FF0000"/>
</svg>
